<svg version="1.1" xmlns="http://www.w3.org/2000/svg" xmlns:xlink="http://www.w3.org/1999/xlink" viewBox="0 0 24 17" class="stegosaurus">
<path fill="#363D3D" d="M1.594,6.562C0.598,6.688,0,5.5,1,5.208C1.969,5.25,4.886,4.129,7.219,3.688C8.677,3.875,8.938,6,9.515,6.079
	c0.553,0.075,5.689,2.384,6.087,2.418c0.448-0.182,2.111-1.454,2.111-1.454l2.359,0.137l1.303,1.32l-0.596,1.528l-1.719,1.128
	l2.375-1.094l1.839,0.481L24,11.562l-0.271,2.229c0,0-0.537,0.43-1.069,0.774C24,15.833,24,17,24,17H9.792
	C9.792,17,7.219,6.344,1.594,6.562z"/>
</svg>
