<svg version="1.1" class="t-rex" xmlns="http://www.w3.org/2000/svg" xmlns:xlink="http://www.w3.org/1999/xlink" viewBox="0 0 24 17">
<path fill="#363D3D" d="M1.939,1.583c2.365-1.406,7.823,1.688,9.333,0.625c1.135-1.312,3.292-1.281,4.458,0
	c1.427,0,5.092-0.007,6.271,0.656c2.419,1.362,1.737,5.919,0.938,8.135c0,0,0.02,5.631-0.553,6.038s-3.469,0.562-4.86,0.391
	c-2.306-0.284,1.51-4.988,0.007-5.595c-4.219,1.969-12.531,0.375-13.844-0.094c-0.79-0.03-2.844-1.083-2.375-2.375
	S9.783,8.99,11.981,7.167c0.49-0.302,0.375-0.219-0.073-0.458C11.46,6.469,3.085,7.188,1.481,6.417S-0.148,2.824,1.939,1.583z"/>
<path fill="#363D3D" d="M5.657,15.194c0.172,0.672,1.422,1.844,1.422,1.844h0.5c0,0,0.172-1.344-0.281-1.844
	c-0.047-0.156-0.281,0.625-0.281,0.625s-0.438-0.922-0.547-0.844s0.148,0.906,0.148,0.906S5.569,15.081,5.657,15.194z"/>
<path fill="#363D3D" d="M2.65,16.106c0.358,0.583,2.058,1.323,2.058,1.323l0.567-0.146c0,0-0.131-1.316-0.766-1.655
	c-0.091-0.134-0.167,0.671-0.167,0.671s-0.719-0.741-0.824-0.636c-0.105,0.105,0.388,0.811,0.388,0.811S2.523,16.024,2.65,16.106z"
	/>
</svg>