<svg xmlns="http://www.w3.org/2000/svg" xmlns:xlink="http://www.w3.org/1999/xlink" viewBox="0 0 30 17">
<g>
	<path style="fill:#00be78;" d="M7.098,12.655c0,0,0.091,0.455,0.106,0.687c0.025,0.411-0.122,0.948-0.035,1.237
		c0.086,0.287,0.16,0.534,0.16,0.534c0.017,0.059,0.059,0,0.14,0.12c0.084,0.122,0.145,0.437,0.23,0.653c0,0,0.029,0.17,0.088,0.226
		c0.108,0.096,0.425,0.118,0.425,0.118l0.281,0.121l0.957,0.067c0.084,0.009,0.147,0.083,0.229,0.104
		c0.133,0.028,0.408,0.017,0.408,0.017c0.074,0.003,0.128,0.133,0.194,0.103c0.073-0.035-0.029-0.188,0.036-0.24
		c0.202-0.166,0.584,0.174,0.794,0.017c0.041-0.028,0.048-0.093,0.036-0.136c0,0-0.132-0.201-0.07-0.278
		c0.132-0.159,0.663,0.225,0.637,0.021c0,0-0.008-0.19-0.036-0.276c-0.036-0.111-0.228-0.213-0.159-0.31
		c0.057-0.076,0.241,0.114,0.299,0.033c0.085-0.114-0.193-0.378-0.193-0.378l-0.143-0.205l0.903,0.066
		c0.045,0.006,0.047-0.075,0.054-0.119c0.003-0.034-0.02-0.102-0.02-0.102c-0.025-0.153,0.359,0.184,0.461,0.119
		c0.101-0.064,0.051-0.162,0.034-0.243c-0.008-0.044-0.095-0.077-0.07-0.118c0.073-0.112,0.311,0.128,0.408,0.032l0.071-0.066
		l-0.178-0.31l0.107-0.015l-0.072-0.106c0,0-0.794-0.418-1.024-0.774c-0.045-0.066-0.053-0.238-0.053-0.238
		c-0.042-0.184-0.095-0.366-0.088-0.553s0.124-0.549,0.124-0.549s0.562-0.084,0.832-0.17c0.173-0.06,0.495-0.226,0.495-0.226
		s-0.106,0.464-0.125,0.567c-0.017,0.104,0.001,0.498,0.054,0.74c0.047,0.219,0.13,0.431,0.229,0.635
		c0.087,0.178,0.319,0.499,0.319,0.499l0.248,0.825c0.062,0.21,0.216,0.382,0.3,0.587c0.074,0.176,0.179,0.548,0.179,0.548
		c0.045,0.149-0.015,0.323,0.049,0.465c0.038,0.079,0.177,0.189,0.177,0.189c0.101,0.104,0.271,0.104,0.409,0.154
		c0.12,0.044,0.244,0.094,0.372,0.121c0.161,0.034,0.494,0.049,0.494,0.049c0.115,0.015,0.221,0.087,0.336,0.104
		c0.104,0.019,0.319,0,0.319,0c0.042,0,0.091-0.026,0.105-0.067c0.032-0.09-0.147-0.199-0.089-0.274
		c0.038-0.049,0.289,0.022,0.424,0.068c0.091,0.032,0.154,0.147,0.247,0.138c0.09-0.009,0.249-0.104,0.195-0.171
		c0,0-0.059-0.041-0.052-0.068c0.008-0.044,0.184,0.065,0.282,0.068c0.059,0,0.146,0.016,0.175-0.035
		c0.049-0.071-0.148-0.213-0.069-0.241c0,0,0.218-0.031,0.284-0.104c0.037-0.04,0.053-0.104,0.035-0.154
		c0,0-0.053-0.127-0.071-0.189c-0.017-0.056,0.007-0.128-0.034-0.171l-0.179-0.189c-0.156-0.168-0.41-0.224-0.582-0.378
		c-0.051-0.046-0.089-0.099-0.126-0.153c-0.073-0.112-0.191-0.345-0.191-0.345c-0.07-0.127-0.023-0.282-0.074-0.412
		c-0.055-0.156-0.246-0.433-0.246-0.433c-0.122-0.212-0.293-0.404-0.37-0.637c-0.093-0.267-0.105-0.841-0.105-0.841
		c0.012-0.146,0.354-0.449,0.617-0.517c0.203-0.053,0.618,0.121,0.618,0.121c0.192,0.035,0.398-0.086,0.585-0.035
		c0.153,0.045,0.39,0.275,0.39,0.275c0.09,0.063,0.205,0.109,0.318,0.104c0.195-0.012,0.401-0.284,0.531-0.242
		c0.074,0.026,0.004,0.339,0.051,0.498c0.059,0.192,0.283,0.535,0.283,0.535l0.23,0.257c0.07,0.078,0.021,0.212,0.053,0.311
		c0.041,0.12,0.176,0.344,0.176,0.344c0.067,0.127,0.161,0.241,0.196,0.377c0.089,0.345,0.034,1.066,0.034,1.066
		c0.004,0.071-0.031,0.145,0,0.21c0.067,0.129,0.353,0.271,0.353,0.271c0.202,0.157,0.491,0.144,0.747,0.19
		c0.272,0.052,0.829,0.089,0.829,0.089s0.211,0.044,0.318,0.049c0.041,0.003,0.122,0,0.122,0c0.055,0,0-0.104,0-0.154
		c0-0.041,0-0.12,0-0.12c0-0.109,0.207,0.09,0.319,0.104c0.103,0.009,0.301-0.032,0.301-0.032c0.055-0.011,0.009-0.128,0.052-0.158
		c0.085-0.053,0.304,0.018,0.304,0.018s0.17,0.047,0.226,0c0.039-0.028-0.027-0.132,0.022-0.138l0.28-0.033
		c0.079-0.012-0.035-0.14-0.105-0.206c-0.071-0.071-0.327-0.292-0.497-0.431c-0.154-0.132-0.324-0.14-0.476-0.396
		c-0.149-0.255-0.116-0.761-0.212-1.136c-0.1-0.379-0.266-0.74-0.371-1.118c-0.056-0.197-0.142-0.601-0.142-0.601
		c-0.058-0.24,0.159-0.468,0.229-0.705c0.061-0.204,0.086-0.424,0.158-0.623l0.178-0.462c0.049-0.128,0.257-0.124,0.39-0.171
		c0.171-0.066,0.37-0.066,0.532-0.156C24.19,9.701,24.27,9.482,24.445,9.4c0.158-0.07,0.349-0.014,0.516-0.049
		c0.195-0.047,0.565-0.208,0.565-0.208c0.281-0.101,0.521-0.284,0.794-0.395c0.197-0.079,0.603-0.19,0.603-0.19
		C27.204,8.47,27.51,8.468,27.79,8.37c0.197-0.067,0.566-0.274,0.566-0.274c0.223-0.112,0.43-0.267,0.598-0.447
		C29.1,7.526,29.104,7.239,29.256,7.2c0.055-0.014,0.02,0.172,0.02,0.172s0.165-0.078,0.23-0.137
		c0.161-0.15,0.388-0.534,0.388-0.534c0.104-0.141,0.158-0.43,0.142-0.5c-0.018-0.068,0.041-0.431-0.073-0.601l-0.263-0.395
		c-0.134-0.202-0.342-0.354-0.549-0.483c-0.13-0.079-0.424-0.171-0.424-0.171c-0.182-0.074-0.185-0.342-0.319-0.482
		c-0.186-0.196-0.654-0.481-0.654-0.481S27.612,3.933,27.49,4.07c-0.146,0.157-0.531,0.361-0.531,0.361l-0.285-0.068l-0.512-0.17
		l0.53-0.448c0,0,0.521-0.331,0.777-0.499c0.232-0.154,0.462-0.311,0.692-0.466c0,0,0.426-0.281,0.635-0.429
		c0.107-0.078,0.229-0.143,0.317-0.242l0.32-0.346l0.156-0.118l0.092-0.154l-0.056-0.104h-0.211c0,0-0.379,0.26-0.582,0.361
		c-0.215,0.106-0.443,0.188-0.672,0.259c-0.193,0.06-0.497,0.138-0.586,0.138c-0.086,0-1.183,0.396-1.183,0.396L25.79,2.885
		l0.671-0.619l0.815-0.552l0.55-0.43l0.459-0.533l0.405-0.482l0.054-0.19L28.656,0.01l-0.158,0.123c0,0-0.529,0.357-0.814,0.498
		c-0.25,0.121-0.779,0.292-0.779,0.292c-0.35,0.13-0.673,0.317-1.006,0.48c-0.32,0.158-0.667,0.274-0.958,0.482
		c0,0-0.502,0.347-0.741,0.532c-0.196,0.154-0.433,0.276-0.568,0.482L23.42,3.229h-0.6l-0.69-0.398l-0.85-0.565
		c0,0-0.348-0.397-0.583-0.502c-0.418-0.149-0.745,0.034-1.098,0.243c-0.18,0.098-0.513,0.345-0.513,0.345
		c-0.15,0.1-0.304,0.212-0.405,0.359c-0.066,0.098-0.126,0.328-0.126,0.328s-0.918-0.401-1.376-0.602
		c-0.811-0.354-1.653-0.616-2.496-0.877c-1.637-0.514-3.499-0.409-4.987,0.447C8.46,2.719,7.039,3.827,6.48,4.587
		C5.993,5.248,5.581,5.973,5.241,6.719c-0.2,0.437-0.376,0.889-0.479,1.359c0,0-0.199,0.988-0.317,1.477
		c-0.085,0.354-0.189,0.699-0.283,1.051c0,0-0.16,0.672-0.264,0.998c-0.087,0.271-0.152,0.551-0.302,0.793
		c-0.114,0.183-0.275,0.338-0.441,0.479C3,13.008,2.834,13.14,2.643,13.202c0,0-0.303,0.127-0.461,0.157
		c-0.139,0.024-0.285,0.024-0.425,0.016c0,0-0.201,0-0.3-0.016c-0.557-0.103-0.919-0.875-1.344-0.828
		c-0.162,0.018-0.033,0.559,0.105,0.723l0.76,0.913c0.133,0.159,0.333,0.254,0.513,0.358c0.208,0.126,0.419,0.265,0.654,0.329
		c0,0,0.489,0.17,0.745,0.208c0.191,0.027,0.388,0.028,0.581,0.018c0.229-0.018,0.455-0.059,0.673-0.124
		c0.251-0.07,0.495-0.171,0.727-0.289c0,0,0.472-0.219,0.688-0.362c0.255-0.165,0.499-0.354,0.708-0.567
		c0.177-0.184,0.322-0.423,0.459-0.603C6.866,12.957,7.098,12.655,7.098,12.655z"/>
</g>
</svg>
