<svg version="1.1" xmlns="http://www.w3.org/2000/svg" xmlns:xlink="http://www.w3.org/1999/xlink" viewBox="0 0 600 400">
<g>
	<path fill="#00BE78" d="M141.896,284.493c4.232,12.336-0.93,26.421,2.084,39.164c1.541,6.517,4.26,8.864,6.984,14.327
		c2.181,4.374,1.64,10.532,5.424,14.013c3.031,2.788,9.438,3.434,13.335,4.202c11.471,2.261,26.049-0.951,35.89,6.634
		c-2.438-11.461,13.505-0.27,16.881-5.027c1.787-2.519-2.844-5.841-0.395-8.123c2.475-2.307,6.657,2.092,9.043,1.678
		c8.219-1.426-2.307-8.309,0.068-12.669c1.625-2.983,6.027,5.078,4.539-2.76c-0.589-2.485-3.455-4.585-4.206-7.03
		c3.834-0.679,7.979,1.304,11.834,0.399c0.538-0.126,9.041-4.54,5.099-5.26c3.671,0.67,16.315,5.645,8.415-4.167
		c3.399-1.079,6.611,2.804,9.555-0.68c-1.15-2.062-2.379-4.158-3.526-6.216c0.629-0.217,1.433-0.209,2.093-0.303
		c-3.715-6.455-14.017-8.419-19.05-14.193c-7.185-8.244-5.935-20.409-3.185-30.201c5.468-0.837,11.391-1.577,16.647-3.402
		c2.806-0.974,5.467-2.537,8.241-3.308c-0.838,6.984-1.433,14.596-0.378,21.669c1.58,10.598,7.468,17.286,11.73,26.459
		c2.65,5.703,3.245,12.375,5.743,18.161c2.471,5.725,5.674,10.415,7.302,16.483c2.192,8.177,0.48,15.02,8.979,19.38
		c6.726,3.45,14.654,2.781,21.896,4.132c5.9,1.1,19.284,6.278,13.873-4.613c2.556-0.561,21.914,7.326,16.502-0.905
		c4.035,1.504,12.583,2.701,7.204-3.664c11.651-6.02,3.824-14.781-4.638-20.306c-9.321-6.086-10.455-10.838-13.445-20.639
		c-3.545-11.622-15.048-20.696-16.002-33.158c-1.064-13.905,12.257-16.941,23.414-15.173c4.56,0.723,9.741-0.875,14.075,0.236
		c4.612,1.182,6.976,6.345,11.677,7.228c4.228,0.75,10.022-5.486,13.512-2.917c2.921,2.15,3.795,15.422,6.8,19.489
		c4.472,6.051,5.573,11.752,9.224,18.443c5.037,9.231,4.08,16.796,4.282,26.947c0.243,12.207,12.76,13.092,21.925,14.739
		c7.948,1.519,17.42,4.443,25.522,2.376c-0.333-1.694,0.646-3.929,0.408-5.491c7.766,4.187,8.259,0.093,14.276-1.304
		c2.352-0.546,4.927,0.959,7.384,0.437c2.869-0.611,4.331-3.575,8.358-3.769c0.641-0.031-8.16-9.472-9.187-10.238
		c-3.977-2.968-8.832-5.314-11.976-9.274c-7.799-9.819-5.193-24.72-9.167-36.068c-2.36-6.74-6.647-15.762-6.439-23.067
		c0.213-7.454,5.529-18.314,7.849-25.547c1.584-4.937,3.003-9.621,7.776-12.299c4.64-2.604,11.09-1.077,15.58-4.262
		c5.2-3.689,5.33-6.563,12.159-7.81c9.356-1.708,16.705-4.138,25.292-8.622c18.779-9.804,48.34-8.639,61.428-27.557
		c1.886-2.726,1.701-5.668,4.891-6.957c-0.131,0.935,0.157,2.259,0.031,3.327c16.683-6.819,18.848-29.027,9.338-42.064
		c-3.217-4.41-6.805-8.001-11.614-10.712c-2.965-1.672-6.975-1.976-9.573-4.257c-2.851-2.503-2.957-6.345-5.518-9.022
		c-3.71-3.909-13.029-9.589-13.08-9.62c2.717,1.655-10.186,13.434-12.166,14.204c-6.588,2.564-13.352-0.005-19.674-2.105
		c0,0,10.6-8.96,10.6-8.96c11.867-7.539,24.592-13.645,36.204-21.599c3.164-2.167,30.297-24.005,20.03-25.738
		c-3.453-0.583-8.411,4.697-11.134,6.202c-15.509,8.569-34.473,11.064-51.12,17.055c0,0-23.02,12.88-23.019,12.879
		C521.006,78.75,551.187,61.872,565.7,45.02l8.1-9.64l1.08-3.8l-1.76-1.38l-3.16,2.46c0,0-10.58,7.14-16.28,9.96
		c-18.815,9.106-38.684,14.286-56.39,26.142c-13.301,8.906-24.858,28.961-42.096,24.222c-12.091-3.325-21.805-10.294-30.641-18.873
		c-8.021-7.787-15.6-11.32-26.728-7.588c-11.349,3.806-23.694,12.068-26.78,24.28c-9.053-4.209-18.31-8.066-27.466-12.063
		c-16.22-7.08-33.06-12.32-49.92-17.54c-32.74-10.28-69.98-8.18-99.74,8.94c-24.72,14.24-53.14,36.4-64.32,51.6
		c-9.74,13.22-17.98,27.72-24.78,42.64c-10.154,22.28-13.101,46.472-19.356,69.931c-5.843,21.913-9.038,50.635-33.136,60.068
		c-8.469,3.315-17.897,4.651-26.521,1.115c-7.529-3.087-15.154-15.803-23.548-14.874c-3.24,0.36-0.66,11.179,2.1,14.46
		c19.311,22.954,42.373,41.689,74.517,34.857c11.199-2.38,22.142-7.403,31.776-13.583c6.428-4.124,11.701-9.558,16.614-15.348
		C131.461,296.062,136.215,287.119,141.896,284.493z"/>
</g>
</svg>