<svg version="1.1" id="Layer_1" xmlns="http://www.w3.org/2000/svg" xmlns:xlink="http://www.w3.org/1999/xlink" x="0px" y="0px" viewBox="0 0 1024 768" xml:space="preserve">
<path d="M716.27,213.482c-3.361-0.005-10.564,1.401-10.564,1.401c-10.438,2.557-17.146,5.341-24.481,10.206
	c-7.336,4.864-16.454,14.84-17.078,16.065c-0.262,0.511-0.532,0.75-0.763,0.859c0.017-0.353,0.026-0.643,0.025-0.854
	c-0.009-2.383-0.806-3.88-2.246-4.265c5.329-10.534,6.115-11.474,8.81-12.656c2.813-1.234,2.539-3.243-1.521,0.034
	c-3.129,2.523-6.196,9.509-7.442,12.588c-0.261-0.054-0.538-0.078-0.838-0.061c-0.205,0.011-0.404,0.044-0.595,0.095
	c-0.743-2.92-2.964-10.839-5.882-13.887c-3.608-3.769-4.139-1.813-1.505-0.228c2.556,1.539,3.196,2.579,7.278,14.147
	c-1.586,0.495-2.59,2.359-2.136,5.032c-0.229-0.11-0.498-0.354-0.753-0.872c-0.605-1.234-9.574-11.346-16.836-16.319
	c-7.261-4.974-13.927-7.858-24.325-10.572c0,0-7.181-1.513-10.542-1.558c-3.361-0.045-7.979,0.803-6.714,6.052
	c1.267,5.25,3.928,7.484,7.517,10.801c3.59,3.316,5.126,5.177,6.134,7.386c1.01,2.209,7.003,14.049,10.604,14.179
	c3.599,0.129,4.235,0.223,4.235,0.223s-3.8,1.487-3.849,6.214c-0.051,4.728,1.556,4.361,2.409,6.703
	c0.854,2.342,1.135,2.308,2.788,4.21c1.655,1.903,3.996,4.441,7.67,4.583c1.771,0.068,1.575,2.197,4.788,2.886
	c3.212,0.689,5.053,1.318,6.157,1.979s5.784,4.982,6.51,3.472c0.702-1.46,3.992-18.767,5.043-21.501
	c0.069,2.969,0.143,5.458,0.261,6.656c0.363,3.69-0.392,6.629,0.062,8.432c0,0,0.48,1.58,1.006,1.04
	c0.524-0.541,1.465-3.152,1.477-3.834c0.01-0.682-0.024-5.164,0.339-8.001c0.103-0.804,0.315-2.763,0.569-5.224l0.3,0.745
	c0.896,1.775,4.114,20.283,4.816,21.804c0.703,1.521,5.447-2.729,6.562-3.375c1.114-0.645,2.964-1.246,6.186-1.887
	c3.223-0.641,3.06-2.772,4.831-2.814c3.676-0.087,6.054-2.589,7.737-4.467c1.683-1.878,1.962-1.839,2.851-4.168
	c0.891-2.329,2.489-1.938,2.511-6.666c0.021-4.727-3.756-6.271-3.756-6.271s0.639-0.083,4.239-0.159
	c3.601-0.076,9.771-11.825,10.813-14.019c1.042-2.193,2.605-4.031,6.243-7.293c3.639-3.262,6.333-5.457,7.679-10.687
	C724.235,214.404,719.631,213.487,716.27,213.482z"/>
<g>
	<path d="M517.578,151.073c0,0,11.942,0.281,17.563-5.479c0,0,3.231,4.215,5.479,5.059l1.827,0.983c0,0-0.984,2.951-4.777,4.075
		c-2.139,0.633-3.071,0.687-3.479,0.612c0.882,0.478,3.518,1.527,6.71-0.753c3.935-2.81,3.372-3.935,3.372-3.935
		s2.951-1.124,4.355-0.281c1.405,0.843,6.604,7.587,12.646,7.728c6.042,0.141,6.464,1.264,5.761-8.43
		c-0.703-9.695-2.529-12.646-7.447-22.481c-4.917-9.835-15.596-24.729-15.877-26.836s1.266-3.513,2.951-4.777
		s7.025-6.885,5.479-16.018c0,0-0.28-0.702,1.687-0.281c1.967,0.422,2.81-2.529,4.355-2.81c1.545-0.281,3.652,1.827,3.652,3.372
		c0,1.546-0.702,2.248-1.404,2.248c0,0,1.709,1.5,2.763-1.92c1.054-3.419-4.847-10.209-10.912-6.885c0,0-2.318,0.656-3.091,2.412
		c0,0-3.653,0.914-4.566,3.513c-0.914,2.599-1.405,6.112-1.405,6.112s-3.161-4.637-7.235-8.43c0,0,3.723-1.545,5.197-3.793
		c1.476-2.249,1.827-6.253,1.827-6.253s3.442,2.6,3.653,2.951c0.211,0.352,1.264,0.773,1.194-0.421
		c-0.07-1.194-4.637-4.566-4.637-4.566s0.281-3.091,0.843-4.004c0.563-0.914,0.07-2.108,1.335-2.81s2.179-5.199,0.562-6.814
		c0,0-0.913-0.983-0.772,1.054c0,0-0.843-0.351-1.616-0.21c-0.772,0.14-0.069,1.054,0.844,1.475
		c0.914,0.421,0.983,2.318,0.563,3.232c-0.422,0.913-3.514,1.686-4.216,3.864s-0.491,2.248-1.687,2.389
		c-1.193,0.14-4.988-1.124-5.619-1.476c-0.633-0.351-4.988-2.178-5.621-2.74c-0.632-0.562-2.599-0.703-3.441,0
		c-0.844,0.703-2.811,2.599-4.356,2.669c-1.337,0.061-2.306,0.122-2.542,0.137c-0.236-0.015-1.204-0.076-2.541-0.137
		c-1.546-0.07-3.513-1.967-4.356-2.669c-0.843-0.703-2.81-0.562-3.442,0s-4.988,2.389-5.621,2.74
		c-0.632,0.352-4.426,1.616-5.62,1.476c-1.194-0.141-0.983-0.211-1.686-2.389s-3.793-2.951-4.215-3.864
		c-0.422-0.914-0.352-2.81,0.562-3.232c0.914-0.421,1.616-1.334,0.843-1.475c-0.772-0.141-1.615,0.21-1.615,0.21
		c0.14-2.037-0.773-1.054-0.773-1.054c-1.616,1.616-0.703,6.112,0.562,6.814c1.265,0.703,0.773,1.897,1.335,2.81
		c0.562,0.914,0.843,4.004,0.843,4.004s-4.566,3.372-4.636,4.566c-0.07,1.194,0.983,0.773,1.194,0.422
		c0.211-0.352,3.653-2.951,3.653-2.951s0.351,4.004,1.826,6.252c1.476,2.248,5.199,3.793,5.199,3.793
		c-4.075,3.793-7.236,8.43-7.236,8.43s-0.491-3.513-1.405-6.112c-0.913-2.599-4.566-3.512-4.566-3.512
		c-0.773-1.757-3.091-2.412-3.091-2.412c-6.065-3.325-11.966,3.466-10.913,6.885s2.764,1.92,2.764,1.92
		c-0.703,0-1.405-0.703-1.405-2.248s2.107-3.653,3.653-3.372c1.545,0.281,2.389,3.231,4.355,2.81
		c1.967-0.421,1.686,0.281,1.686,0.281c-1.545,9.133,3.793,14.753,5.479,16.018c1.687,1.265,3.232,2.67,2.951,4.777
		s-10.959,17.001-15.877,26.836c-4.917,9.835-6.744,12.786-7.447,22.481c-0.702,9.695-0.281,8.571,5.761,8.43
		c6.042-0.141,11.24-6.885,12.645-7.728c1.405-0.843,4.355,0.281,4.355,0.281s-0.562,1.124,3.373,3.934
		c3.191,2.28,5.828,1.23,6.709,0.753c-0.407,0.074-1.339,0.021-3.478-0.612c-3.794-1.125-4.777-4.075-4.777-4.075l1.827-0.983
		c2.248-0.843,5.479-5.059,5.479-5.059c5.621,5.761,17.563,5.479,17.563,5.479H517.578z M525.024,61.619
		c0.702,0,3.325-0.329,5.948,1.452c2.623,1.78,6.322,2.342,6.65,2.623c0.328,0.281,0.843,0.187,0.422,1.077
		c0,0-3.232,4.824-3.514,7.26c0,0-0.562,0.889-1.123-0.141c-0.563-1.03-3.092-5.948-6.791-7.306c0,0-1.078-0.468-1.547-0.515
		c-0.467-0.047-0.467-1.077-0.467-2.014C524.604,63.117,524.322,61.619,525.024,61.619z M496.945,66.771
		c-0.422-0.89,0.093-0.796,0.421-1.077c0.328-0.281,4.028-0.843,6.65-2.623c2.623-1.78,5.246-1.452,5.949-1.452
		c0.702,0,0.421,1.498,0.421,2.435c0,0.937,0,1.967-0.469,2.014c-0.468,0.047-1.545,0.515-1.545,0.515
		c-3.7,1.358-6.23,6.276-6.792,7.306c-0.562,1.03-1.124,0.141-1.124,0.141C500.176,71.595,496.945,66.771,496.945,66.771z"/>
</g>
<path d="M311.252,88.108c1.962,2.615,7.323,5.623,14.777,5.623s13.077-1.308,16.869-2.746c3.792-1.438,7.061-3.531,7.977-2.746
	s1.438,0.654,0.262,3.792c-1.177,3.138-3.269,7.846-4.054,8.369c-0.785,0.523-8.369,4.838-11.377,7.977
	c-3.008,3.139-9.415,11.377-10.854,13.208s-2.746,4.577-1.177,5.492c1.569,0.916,4.839-1.7,9.023-6.538
	c4.185-4.838,11.377-13.731,12.423-13.077c1.046,0.653,1.308,6.931-0.785,10.2s-3.4,2.615-4.185,3.923s-7.584,14.515-9.154,18.569
	s-6.539,17.13-4.315,22.1s5.361,1.046,4.315-2.484c-1.046-3.531,2.092-16.607,5.623-22.492c3.531-5.884,3.007-2.615,4.969-7.192
	c1.961-4.577,2.615-6.669,3.661-4.969c1.046,1.7,1.046,1.7,1.046,1.7s2.463,12.938,10.854,19.746
	c6.689,5.427,12.97,5.129,13.399,5.102c0.43,0.027,6.71,0.325,13.399-5.102c8.39-6.807,10.854-19.746,10.854-19.746s0,0,1.046-1.7
	c1.046-1.7,1.7,0.392,3.662,4.969c1.961,4.577,1.438,1.308,4.969,7.192c3.531,5.885,6.669,18.961,5.623,22.492
	c-1.046,3.531,2.092,7.454,4.315,2.484c2.223-4.969-2.747-18.046-4.315-22.1c-1.569-4.054-8.369-17.261-9.154-18.569
	s-2.092-0.654-4.185-3.923s-1.831-9.546-0.785-10.2c1.046-0.654,8.238,8.238,12.423,13.077s7.454,7.454,9.023,6.538
	s0.262-3.662-1.177-5.492s-7.846-10.069-10.854-13.208c-3.007-3.138-10.592-7.454-11.376-7.977
	c-0.785-0.523-2.877-5.231-4.054-8.369c-1.177-3.139-0.654-3.008,0.261-3.792c0.916-0.785,4.185,1.308,7.977,2.746
	c3.792,1.438,9.415,2.746,16.869,2.746c7.454,0,12.815-3.007,14.777-5.623c1.961-2.616,0.915-5.623-1.831-3.662
	s-8.762,4.185-10.854,4.708c-2.093,0.523-5.231-2.223-8.108-1.569s-6.015-1.046-8.892-1.831s-11.115-1.569-11.9-2.223
	s-2.615-4.446-2.354-6.015c0.261-1.569-2.223-2.354,8.5,0.523c10.723,2.877,20.661-1.308,25.369-3.269
	c4.708-1.961,6.277-9.023,6.277-10.984s-1.308-6.669-3.662-6.146c-2.354,0.523-1.438,3.923-1.177,6.538
	c0.261,2.615-3.139,6.539-5.754,7.977c-2.615,1.438-6.539,1.438-11.115,2.093c-4.577,0.654-3.4-1.569-11.115-3.008
	s-10.2,1.046-11.246,2.615c-1.046,1.569-2.223,1.177-4.446-0.131s-3.139-1.177-2.354-2.484s1.569-1.438,0.523-4.446
	c-0.979-2.814-4.666-3.101-5.135-3.126v-0.002c0,0-0.016,0-0.025,0.001c-0.009,0-0.025-0.001-0.025-0.001v0.002
	c-0.47,0.025-4.157,0.312-5.136,3.126c-1.046,3.008-0.261,3.139,0.523,4.446c0.785,1.308-0.13,1.177-2.354,2.484
	s-3.4,1.7-4.446,0.131c-1.046-1.569-3.531-4.054-11.246-2.615c-7.715,1.438-6.539,3.662-11.115,3.008
	c-4.577-0.654-8.5-0.654-11.115-2.093c-2.616-1.438-6.016-5.361-5.754-7.977s1.177-6.015-1.177-6.538
	c-2.354-0.523-3.662,4.185-3.662,6.146s1.569,9.023,6.277,10.984s14.646,6.146,25.369,3.269c10.723-2.877,8.238-2.092,8.5-0.523
	c0.262,1.569-1.569,5.361-2.354,6.015s-9.023,1.438-11.899,2.223c-2.877,0.785-6.016,2.484-8.893,1.831
	c-2.876-0.654-6.015,2.092-8.107,1.569s-8.107-2.746-10.854-4.708S309.291,85.493,311.252,88.108z"/>
<path d="M335.713,611.285c0.96-8.397,2.04-18.595,2.04-18.595s0.12,7.438,2.04,7.317c1.92-0.119,7.318,0.48,7.438-8.397
	c0.07-5.178-0.064-7.009-0.188-7.636c1.016,1.651,6.326,10.092,9.787,11.714c0,0,0.944,0.567,2.948,0.576v0.002
	c0.009,0,0.017,0,0.025,0c0.009,0,0.017,0,0.025,0v-0.002c2.004-0.009,2.949-0.576,2.949-0.576c3.46-1.622,8.77-10.063,9.786-11.714
	c-0.124,0.627-0.258,2.458-0.188,7.636c0.12,8.878,5.519,8.278,7.438,8.397c1.919,0.121,2.04-7.317,2.04-7.317
	s1.079,10.197,2.039,18.595s5.159,9.358,8.158,9.237c3-0.119,1.561-6.599,0.84-14.877c-0.72-8.276-9.597-38.03-9.838-38.631
	c-0.239-0.6-0.839-3.118-0.839-3.599c0-0.479,1.799,1.08,4.438,3.239c2.639,2.16,10.677,8.999,11.158,9.839
	c0.479,0.839,0.839,1.799,1.68,1.799c0.839,0,2.879-2.52,2.759-3.719c-0.121-1.199-1.92-0.72-2.879-0.72
	c-0.96,0-9.118-6.6-11.518-8.52c-2.399-1.919-4.799-5.157-6.718-9.117c-1.919-3.959-6.118-15.236-6.118-15.596s1.919,0,3.719,0.48
	c1.8,0.479,3.24,1.08,7.079,0.479c3.839-0.6,6.479-2.638,8.877-2.758c2.399-0.121,7.678,0.239,9.238,0.96
	c1.56,0.719,3.24,1.198,3.24-0.721c0-1.92-0.48-3.359-1.44-3.479c-0.96-0.121-2.399,1.199-4.679,1.439
	c-2.279,0.24-5.638,0.24-6.718,0c-1.08-0.24-1.919,0-5.04,1.079c-3.119,1.08-3.839,0.721-3.839,0.721
	c-2.639-1.2-9.837-2.64-10.677-2.76c-0.84-0.119-1.439-1.439-1.56-3.959s-0.12-8.157-0.12-8.157s6.719-1.441,9.118-3.121
	c2.399-1.679,1.919-5.159,2.52-6.598c0.6-1.439,6.119-6.839,7.438-7.438c1.32-0.6,2.16-1.799,0.72-2.999
	c-1.439-1.199-2.279-1.56-3.119,0s-3.12,5.879-5.159,7.438c-2.039,1.56-3.119,3.238-3.119,4.559s-0.12,1.561-1.56,2.159
	c-1.439,0.6-7.678,2.879-7.678,2.879c-1.32-3.238-5.519-5.397-5.519-5.397s1.56-0.24,4.559-0.361c3-0.119,2.519-2.878,0.72-6.717
	c-1.799-3.84-7.438-7.319-7.438-7.319s2.759-5.997,6.239-9.237c3.479-3.239,10.077-11.757,12.357-15.836
	c2.279-4.078,3.719-10.078,3.479-13.796c-0.24-3.721-3.719-4.079-3.6-1.441c0.121,2.641-1.679,9.838-3.358,14.877
	c-1.679,5.04-4.319,7.8-9.238,13.678c-4.919,5.878-8.278,10.917-8.278,10.917c-0.328-0.22-2.047-0.238-2.35-0.239v-0.002
	c0,0-0.009,0-0.025,0s-0.025,0-0.025,0v0.002c-0.302,0.001-2.021,0.02-2.349,0.239c0,0-3.358-5.039-8.278-10.917
	c-4.919-5.878-7.558-8.638-9.238-13.678c-1.68-5.039-3.479-12.236-3.359-14.877c0.12-2.638-3.359-2.279-3.6,1.441
	c-0.24,3.718,1.2,9.718,3.479,13.796c2.28,4.079,8.878,12.597,12.357,15.836c3.479,3.24,6.239,9.237,6.239,9.237
	s-5.639,3.479-7.438,7.319c-1.799,3.839-2.279,6.598,0.72,6.717c2.999,0.121,4.559,0.361,4.559,0.361s-4.199,2.159-5.519,5.397
	c0,0-6.238-2.279-7.678-2.879c-1.439-0.599-1.559-0.839-1.559-2.159s-1.081-2.999-3.12-4.559c-2.04-1.56-4.319-5.879-5.159-7.438
	s-1.679-1.199-3.12,0c-1.439,1.2-0.599,2.399,0.721,2.999c1.319,0.6,6.837,5.999,7.438,7.438c0.6,1.438,0.12,4.919,2.52,6.598
	c2.399,1.68,9.118,3.121,9.118,3.121s0,5.638-0.12,8.157s-0.72,3.84-1.56,3.959c-0.839,0.12-8.038,1.56-10.677,2.76
	c0,0-0.72,0.359-3.839-0.721c-3.119-1.079-3.958-1.319-5.039-1.079c-1.079,0.24-4.438,0.24-6.718,0
	c-2.279-0.24-3.719-1.561-4.679-1.439c-0.96,0.119-1.439,1.559-1.439,3.479c0,1.919,1.679,1.439,3.239,0.721
	c1.56-0.721,6.838-1.081,9.238-0.96c2.399,0.12,5.039,2.158,8.878,2.758c3.839,0.602,5.279,0,7.079-0.479
	c1.799-0.48,3.719-0.84,3.719-0.48s-4.199,11.637-6.118,15.596c-1.919,3.96-4.319,7.198-6.719,9.118
	c-2.399,1.919-10.557,8.519-11.517,8.519c-0.959,0-2.76-0.479-2.879,0.72s1.92,3.719,2.759,3.719c0.84,0,1.2-0.96,1.68-1.799
	c0.479-0.84,8.518-7.679,11.157-9.839c2.64-2.159,4.439-3.719,4.439-3.239c0,0.48-0.601,3-0.84,3.599
	c-0.24,0.601-9.118,30.354-9.838,38.631c-0.72,8.278-2.159,14.758,0.841,14.877C330.555,620.644,334.754,619.683,335.713,611.285z"
	/>
<path d="M572.869,208.94c-12.314-5.077-35.217-4.429-41.051-3.565c-5.833,0.864-6.158,1.729-9.291,2.809
	c-3.132,1.08-1.836-0.54-1.836-0.54c1.945-1.296,0.107-5.185,0.107-5.185s3.35-3.673,4.215-4.754
	c0.863-1.08-0.217-2.268,2.052-4.212c2.269-1.945,0.756-2.809,0-2.269c-0.756,0.541-1.944,1.081-2.269,4.213
	s-5.293,7.022-5.293,7.022l-1.966-0.095v-0.004l-0.044,0.001l-0.043-0.001v0.004l-1.966,0.095c0,0-4.97-3.889-5.293-7.022
	c-0.324-3.133-1.513-3.673-2.269-4.213c-0.756-0.54-2.269,0.324,0,2.269c2.269,1.944,1.189,3.132,2.052,4.212
	c0.865,1.081,4.213,4.754,4.213,4.754s-1.836,3.889,0.108,5.185c0,0,1.296,1.62-1.837,0.54c-3.132-1.08-3.456-1.944-9.29-2.809
	c-5.833-0.864-28.735-1.512-41.051,3.565c-12.315,5.078-15.556,9.938-7.994,12.855c7.562,2.917,19.985,8.318,26.359,13.179
	s6.698,8.966,6.698,10.911c0,1.945,1.404,2.917,3.241,3.457c1.836,0.541,1.729,3.781,1.08,4.753
	c-0.647,0.972-2.268,5.293,0.325,5.833s5.293,1.188,3.24,4.213c-2.052,3.025-4.321,9.831-4.969,13.828
	c-0.648,3.997-2.052,9.938-0.648,8.75c1.405-1.188,4.321-13.396,6.698-16.96s4.105-3.997,5.401-2.701
	c1.297,1.296,4.321,1.404,4.646-1.188c0.324-2.593,0.216-7.13,2.484-9.075c2.269-1.944,5.725-4.645,3.457-8.858
	c-2.269-4.213-2.053-13.936-0.432-17.5c1.62-3.565,2.161-6.374,2.161-7.022c0-0.648,0.864-1.188,0.864,1.404
	c0,2.593,0.539,13.828,2.593,14.044l0.129,0.008v0.005l0.043-0.002l0.044,0.002v-0.005l0.128-0.008
	c2.054-0.216,2.594-11.451,2.594-14.044c0-2.592,0.864-2.052,0.864-1.404c0,0.648,0.54,3.457,2.16,7.022s1.837,13.287-0.433,17.5
	c-2.268,4.213,1.188,6.914,3.458,8.858c2.269,1.945,2.16,6.482,2.483,9.075c0.325,2.593,3.35,2.485,4.646,1.188
	c1.296-1.296,3.024-0.864,5.401,2.701c2.376,3.565,5.293,15.772,6.698,16.96c1.404,1.188,0-4.753-0.649-8.75
	c-0.647-3.997-2.917-10.803-4.97-13.828c-2.053-3.024,0.649-3.673,3.241-4.213c2.593-0.54,0.973-4.861,0.324-5.833
	c-0.647-0.972-0.757-4.213,1.081-4.753c1.836-0.54,3.24-1.512,3.24-3.457c0-1.944,0.324-6.049,6.697-10.911
	c6.375-4.861,18.797-10.263,26.359-13.179C588.426,218.878,585.185,214.018,572.869,208.94z"/>
<path d="M415.026,192.996c-19.208,4.488-30.337,14.361-33.568,16.874c-3.231,2.514-9.334,11.13-9.334,11.13
	c2.513-3.949,2.692-7.001,2.692-8.616c0-1.616,0.359-4.668,1.616-5.745c1.256-1.077,3.77-2.154,0.718-1.975
	c-3.052,0.179-3.231,7.719-3.231,9.873c0,2.014-2.98,6.537-3.368,7.117c-0.388-0.58-3.368-5.103-3.368-7.117
	c0-2.153-0.18-9.694-3.231-9.873c-3.051-0.179-0.539,0.897,0.718,1.975c1.257,1.077,1.616,4.129,1.616,5.745
	c0,1.615,0.18,4.667,2.692,8.616c0,0-6.103-8.616-9.334-11.13c-3.231-2.513-14.36-12.386-33.568-16.874
	c-19.208-4.488-17.951,13.463-17.233,22.259c0.718,8.796,2.514,21.182,10.232,21.003c7.719-0.18,8.438,0,8.438,0
	s-8.527,5.564-8.707,8.526c-0.18,2.962,0.987,5.476,0.359,6.283c-0.628,0.808-1.616,1.974,0.359,2.333
	c1.974,0.359,3.051,2.782,3.5,3.77c0.449,0.988,0.628,3.5-0.718,4.667s-4.129,3.141-4.129,3.949c0,0.808,1.347,0.808,4.937-1.436
	c0,0,1.616-1.167,2.423-0.539c0.808,0.628,3.59,2.872,2.244,4.578c-1.346,1.705-3.141,3.859-4.937,5.116
	c-1.795,1.256-4.218,2.782-4.308,4.128c-0.09,1.347,3.5-0.089,5.744-2.782c2.244-2.692,5.116-4.218,7.988-2.333
	c2.872,1.885,2.692,3.231,2.244,3.95c-0.449,0.718-1.347,3.141,0.448,2.692c1.795-0.449,1.526-1.975,3.321-2.692
	c1.795-0.718,4.129,0.718,5.026,1.615c0.897,0.897,0.808,3.77,0.808,4.757c0,0.987,2.962,3.859,3.859-0.988
	c0.898-4.847,0.628-8.975,2.962-10.86c2.333-1.885,9.873-6.193,12.476-10.771c2.603-4.578,4.129-9.155,4.309-10.501
	s0.808-0.179,0.808,1.706c0,1.862-0.348,10.986,1.979,11.208v0.011c0.015,0,0.028-0.005,0.043-0.005
	c0.014,0,0.028,0.005,0.042,0.005v-0.011c2.327-0.222,1.979-9.347,1.979-11.208c0-1.885,0.628-3.052,0.808-1.706
	s1.705,5.924,4.308,10.501s10.143,8.886,12.476,10.771c2.334,1.885,2.064,6.013,2.962,10.86c0.897,4.847,3.859,1.975,3.859,0.988
	c0-0.987-0.09-3.86,0.808-4.757s3.231-2.333,5.026-1.615c1.795,0.718,1.526,2.243,3.321,2.692c1.795,0.449,0.898-1.975,0.449-2.692
	c-0.448-0.718-0.628-2.065,2.244-3.95s5.744-0.359,7.988,2.333c2.245,2.693,5.834,4.129,5.745,2.782
	c-0.09-1.346-2.513-2.872-4.308-4.128c-1.795-1.257-3.59-3.411-4.937-5.116c-1.346-1.706,1.436-3.949,2.244-4.578
	c0.808-0.628,2.423,0.539,2.423,0.539c3.59,2.244,4.937,2.244,4.937,1.436c0-0.808-2.783-2.782-4.128-3.949
	c-1.347-1.167-1.167-3.68-0.718-4.667c0.449-0.987,1.526-3.411,3.5-3.77c1.975-0.359,0.987-1.525,0.359-2.333
	c-0.628-0.808,0.538-3.321,0.359-6.283c-0.18-2.962-8.706-8.526-8.706-8.526s0.718-0.18,8.437,0
	c7.719,0.179,9.514-12.207,10.232-21.003C432.978,206.459,434.234,188.507,415.026,192.996z"/>
<path d="M576.459,535.79c-0.362-0.414-1.088-0.829-1.088,0.052s-0.052,0.984-0.983,1.036c-0.934,0.052-0.829-0.155-0.829-0.155
	c-0.154-1.295-1.088-1.555-2.384-1.45c-1.294,0.104-7.718,0.207-10.514-1.243c-2.798-1.451-12.795-15.229-14.763-16.473
	c-1.97-1.243-7.046-0.881-7.615-1.346c-0.569-0.467-3.367-3.575-3.367-3.575l-0.206-2.796c0.039,0,0.09-0.02,0.153-0.053
	c0.683-0.365,2.706-2.561,5.077-3.367c2.59-0.88,1.347-1.036,2.745-2.434c1.398-1.398,6.994-7.148,7.148-8.393
	c0.155-1.242,0.416-0.932,0.416-0.932c0.775,0.051,5.853-1.503,7.354-2.228c1.501-0.725,3.366-1.709,3.366-2.693
	s0.052-0.881,0.777-1.399c0.726-0.518,1.191,0.104,1.191,0.104c2.797,1.968,0.155-1.191-0.674-1.916
	c-0.828-0.726-2.02,0.775-4.091,1.554c-2.072,0.776-7.305,4.092-8.444,4.609c-1.14,0.519-2.176,0.828-2.797,1.813
	c-0.621,0.984-2.797,4.507-3.78,6.216c-0.986,1.709-1.191,1.242-1.191,1.242c-4.56,0.053-6.941,1.192-7.926,1.814
	c-0.985,0.62-1.295-0.208-1.295-0.208c-1.347-7.77-4.092-10.931-4.87-12.121c-0.775-1.191,0.415-0.155,0.312-3.522
	s-2.486-5.335-3.521-5.697c-1.036-0.363-2.953-0.674-2.953-0.674c0.206-1.864,2.331-3.938,2.331-3.938
	c3.832-3.159,7.614-4.661,12.379-6.267c4.766-1.605,8.339-2.228,8.547-3.107c0.208-0.882-2.278-0.622-6.682,0.932
	s-12.69,5.024-15.643,8.133c-2.953,3.107-2.797,4.661-2.797,4.661l-2.198-0.042v-0.003l-0.066,0.001l-0.067-0.001v0.003
	l-2.198,0.042c0,0,0.156-1.554-2.796-4.661c-2.953-3.108-11.24-6.579-15.644-8.133c-4.402-1.554-6.889-1.813-6.682-0.932
	c0.207,0.88,3.782,1.502,8.547,3.107c4.766,1.605,8.547,3.107,12.38,6.267c0,0,2.125,2.073,2.331,3.938c0,0-1.917,0.311-2.952,0.674
	c-1.036,0.362-3.418,2.33-3.522,5.697c-0.104,3.367,1.087,2.331,0.311,3.522c-0.776,1.19-3.522,4.352-4.869,12.121
	c0,0-0.311,0.828-1.295,0.208c-0.983-0.622-3.367-1.762-7.925-1.814c0,0-0.207,0.467-1.191-1.242
	c-0.984-1.709-3.16-5.231-3.781-6.216c-0.622-0.985-1.658-1.295-2.798-1.813c-1.14-0.518-6.372-3.833-8.443-4.609
	c-2.071-0.778-3.263-2.279-4.092-1.554c-0.829,0.725-3.47,3.884-0.673,1.916c0,0,0.465-0.622,1.19-0.104
	c0.726,0.519,0.778,0.415,0.778,1.399s1.865,1.969,3.367,2.693c1.502,0.725,6.578,2.278,7.355,2.228c0,0,0.259-0.311,0.415,0.932
	c0.155,1.244,5.75,6.994,7.148,8.393c1.398,1.397,0.155,1.554,2.746,2.434c2.371,0.807,4.395,3.002,5.077,3.367
	c0.063,0.033,0.114,0.053,0.154,0.053l-0.208,2.796c0,0-2.797,3.108-3.367,3.575c-0.569,0.465-5.646,0.103-7.614,1.346
	c-1.968,1.244-11.965,15.021-14.763,16.473c-2.797,1.45-9.22,1.347-10.515,1.243c-1.295-0.104-2.228,0.155-2.383,1.45
	c0,0,0.104,0.207-0.829,0.155c-0.932-0.052-0.984-0.155-0.984-1.036s-0.725-0.466-1.088-0.052s-1.502,4.61,0.674,4.506
	c2.174-0.103-0.57-0.466-0.259-0.933c0.311-0.466,1.088-0.153,1.761-0.153c0.672,0,1.605,0.207,2.279,0.258
	c0.673,0.052,7.045,0.518,11.965-3.729c0,0,0.881-0.416,1.969-0.26c1.088,0.155,1.088-1.295,2.693-2.953
	c1.606-1.657,6.838-9.685,8.34-10.878c1.502-1.191,1.243-0.051,2.435,0.104c1.191,0.155,5.853,0.569,5.853,0.569
	s-0.466,30.924-0.388,31.157c0,0-4.041,2.408-5.05,3.107c-1.01,0.7-3.497,1.555-4.662,6.216c-1.166,4.662-2.098,22.688-3.108,23.699
	c-1.01,1.01-4.506,2.875-4.817,4.04c-0.312,1.166-0.854,1.243-1.477,2.252c-0.621,1.011-4.273,3.964-4.739,5.284
	c-0.466,1.32-2.02,1.787-2.098,2.486c-0.078,0.699,0.233,3.186,3.03,3.108c0,0-2.021-1.243-1.398-1.864
	c0.621-0.623,1.708-1.556,3.107-1.556s2.487-1.864,3.497-3.339c1.01-1.477,1.554-3.576,3.03-5.596
	c1.476-2.021,5.284-3.107,5.439-6.448c0.155-3.342,1.088-21.757,1.632-22.455c0.543-0.699,2.175,0,3.186-0.544
	s4.351-2.331,4.351-2.331s0.777,24.268,3.574,38.564c2.784,14.228,8.75,35.224,17.996,35.426v0.004c0.023,0,0.044-0.002,0.067-0.002
	c0.022,0,0.044,0.002,0.066,0.002v-0.004c9.247-0.202,15.213-21.198,17.995-35.426c2.798-14.297,3.575-38.564,3.575-38.564
	s3.342,1.787,4.351,2.331c1.011,0.544,2.643-0.155,3.187,0.544c0.544,0.698,1.475,19.113,1.631,22.455
	c0.155,3.341,3.963,4.428,5.439,6.448c1.477,2.02,2.021,4.119,3.03,5.596c1.01,1.475,2.097,3.339,3.496,3.339
	c1.398,0,2.487,0.933,3.107,1.556c0.622,0.621-1.398,1.864-1.398,1.864c2.797,0.077,3.107-2.409,3.03-3.108
	c-0.078-0.699-1.632-1.166-2.098-2.486c-0.465-1.32-4.118-4.273-4.739-5.284c-0.621-1.009-1.166-1.086-1.477-2.252
	c-0.31-1.165-3.807-3.03-4.816-4.04c-1.011-1.012-1.943-19.037-3.108-23.699c-1.166-4.661-3.653-5.516-4.661-6.216
	c-1.012-0.699-5.052-3.107-5.052-3.107c0.078-0.233-0.389-31.157-0.389-31.157s4.662-0.414,5.854-0.569
	c1.19-0.155,0.933-1.296,2.435-0.104c1.503,1.193,6.733,9.221,8.34,10.878c1.605,1.658,1.605,3.108,2.693,2.953
	c1.088-0.156,1.969,0.26,1.969,0.26c4.92,4.246,11.292,3.78,11.966,3.729c0.673-0.051,1.605-0.258,2.278-0.258
	s1.45-0.313,1.761,0.153c0.312,0.467-2.434,0.83-0.258,0.933C577.961,540.4,576.822,536.204,576.459,535.79z"/>
<path d="M716.761,573.795c-1.289,0-3.438,0.108-6.019-1.288c-2.579-1.398-2.633-0.592-4.406-6.287
	c-1.772-5.696-5.212-17.088-6.502-19.184c-1.289-2.095-5.588-3.439-5.588-3.439c0.376-0.269-0.215-2.471-2.096-7.36
	c-1.88-4.891-3.976-5.428-3.976-5.428s0.322-0.592,0.913-2.526s-0.806-5.695-0.806-5.695c8.704-0.537,9.779-1.827,10.531-2.311
	c0.753-0.484,4.46-8.113,4.675-8.543s0.967-1.29,0.108-1.506c-0.86-0.214-1.397,0.216-1.666,0.698
	c-0.269,0.484-3.439,7.147-4.406,8.115c-0.968,0.968-3.978,0.859-5.48,1.182c-1.505,0.322-4.908,0.573-4.908,0.573
	c-1.218-4.012-8.455-7.236-8.455-7.236c2.222-1.146,1.147-3.009,1.147-3.009s0.787-2.006,1.72-3.01
	c0.931-1.002,1.073-2.149,0.501-3.367c-0.573-1.217,0.788-1.146,0.859-2.723c0.071-1.575-1.719-1.074-2.221,0.502
	c-0.501,1.576,0.143,2.077,0.572,2.795c0.431,0.715-0.501,2.221-0.859,2.221s-1.647,2.149-1.647,2.149l-1.935-1.076
	c0,0-0.43-4.728,0.144-9.743c0.574-5.016,8.167-24.79,8.167-24.79l8.454-21.206c0,0,6.735-15.331,7.452-18.628
	c0.716-3.296-1.004-1.146-1.004-1.146s-10.316,25.362-10.89,27.656c-0.573,2.292-10.89,28.3-12.252,33.457
	c-1.36,5.159-2.149,13.828-2.149,13.828c-1.024-0.512-3.134-0.31-3.571-0.26c-0.438-0.05-2.548-0.252-3.572,0.26
	c0,0-0.789-8.669-2.149-13.828c-1.361-5.157-11.678-31.165-12.252-33.457c-0.572-2.294-10.89-27.656-10.89-27.656
	s-1.719-2.149-1.003,1.146c0.717,3.297,7.451,18.628,7.451,18.628l8.453,21.206c0,0,7.595,19.774,8.169,24.79
	c0.572,5.016,0.144,9.743,0.144,9.743l-1.935,1.076c0,0-1.29-2.149-1.647-2.149c-0.359,0-1.291-1.506-0.861-2.221
	c0.431-0.718,1.075-1.219,0.574-2.795c-0.502-1.576-2.292-2.077-2.221-0.502c0.071,1.577,1.432,1.506,0.859,2.723
	c-0.573,1.218-0.43,2.365,0.501,3.367c0.932,1.004,1.72,3.01,1.72,3.01s-1.074,1.862,1.146,3.009c0,0-7.236,3.225-8.455,7.236
	c0,0-3.402-0.251-4.907-0.573c-1.504-0.322-4.513-0.214-5.48-1.182c-0.967-0.968-4.138-7.631-4.407-8.115
	c-0.268-0.482-0.805-0.912-1.665-0.698c-0.859,0.216-0.107,1.076,0.107,1.506s3.922,8.059,4.675,8.543
	c0.752,0.483,1.827,1.773,10.532,2.311c0,0-1.396,3.761-0.806,5.695s0.913,2.526,0.913,2.526s-2.096,0.537-3.977,5.428
	c-1.88,4.89-2.472,7.092-2.095,7.36c0,0-4.3,1.345-5.589,3.439c-1.29,2.096-4.729,13.487-6.501,19.184
	c-1.773,5.695-1.828,4.889-4.407,6.287c-2.58,1.396-4.729,1.288-6.018,1.288c-1.29,0-3.493-0.376-3.493,0.592
	s0.107,2.578,2.203,1.559c2.096-1.021,4.621-0.591,6.287-1.021c1.665-0.431,4.513-0.323,8.544-10.908
	c4.029-10.587,4.943-15.423,5.48-15.906s2.203-0.806,2.257-0.053c0.053,0.753-2.096,16.281-1.182,22.138c0,0-6.02,2.418-6.771,3.6
	c-0.751,1.183-1.666,4.729-1.343,6.181c0.322,1.45,1.559,7.361,1.935,8.489c0.375,1.129,3.708,19.936,3.762,20.903
	c0.053,0.967-2.239,13.881-2.239,14.312s-1.291,1.074,0.071,1.576c1.361,0.501,1.504-0.144,1.361-1.434
	c-0.144-1.289,2.221-11.75,2.793-13.039c0.575-1.29,0.575-2.148,0.072-4.3c-0.501-2.148-2.364-20.347-4.943-26.579
	c0,0-1.504-2.938,0.216-3.011c1.719-0.071,5.014,1.147,6.161,1.435c0,0,0.215,8.848,8.061,27.439c0,0-6.879,6.985-6.019,13.004
	c0,0,0.43,0.967,0.859-1.397c0.43-2.363,2.901-7.522,5.804-8.705c0,0,5.48,16.12,11.606,16.443l4.027,0.284v0.011l0.082-0.006
	l0.082,0.006v-0.011l4.027-0.284c6.126-0.323,11.606-16.443,11.606-16.443c2.901,1.183,5.374,6.342,5.804,8.705
	c0.429,2.364,0.858,1.397,0.858,1.397c0.86-6.019-6.018-13.004-6.018-13.004c7.846-18.592,8.061-27.439,8.061-27.439
	c1.147-0.287,4.441-1.506,6.161-1.435c1.72,0.073,0.215,3.011,0.215,3.011c-2.579,6.232-4.441,24.431-4.942,26.579
	c-0.503,2.151-0.503,3.01,0.071,4.3c0.573,1.289,2.937,11.75,2.794,13.039c-0.144,1.29,0,1.935,1.361,1.434
	c1.361-0.502,0.071-1.146,0.071-1.576s-2.292-13.345-2.239-14.312c0.054-0.968,3.385-19.774,3.762-20.903
	c0.376-1.128,1.611-7.039,1.935-8.489c0.322-1.451-0.592-4.998-1.343-6.181c-0.753-1.182-6.771-3.6-6.771-3.6
	c0.914-5.856-1.235-21.385-1.183-22.138c0.055-0.753,1.72-0.431,2.258,0.053c0.537,0.483,1.45,5.319,5.48,15.906
	c4.03,10.585,6.878,10.478,8.544,10.908c1.666,0.43,4.191,0,6.287,1.021c2.095,1.02,2.203-0.591,2.203-1.559
	S718.051,573.795,716.761,573.795z"/>
<path d="M605.349,366.225c-0.465-3.345-6.968-7.061-16.444-7.99c-9.479-0.929-21.742,1.115-27.596,2.045
	c-5.854,0.929-19.605,0.371-19.605,0.371s9.479-3.809,12.404-4.785c2.928-0.976,2.928-2.647,6.969-2.647
	c4.042,0,9.616-1.812,12.265-2.788c2.647-0.976,4.041-3.065,5.435-4.459c1.394-1.395,5.993-5.157,9.756-7.805
	c3.764-2.648,10.592-9.338,12.265-10.871c1.673-1.533,1.673-4.042,1.673-4.042c-0.419-6.689-12.682-3.484-21.045,0
	c-8.361,3.484-11.289,9.616-28.57,15.331s-26.898,11.707-26.898,11.707v-3.484c0-3.764-3.065-5.436-3.065-5.436
	c2.927-1.115,4.042-2.23,4.181-5.574c0.14-3.346-2.787-5.297-2.787-5.297s0.139-1.672-1.394-3.066
	c-1.368-1.243-4.694-1.252-5.396-1.239c-0.701-0.013-4.027-0.003-5.396,1.239c-1.532,1.395-1.393,3.066-1.393,3.066
	s-2.927,1.951-2.787,5.297c0.14,3.344,1.253,4.459,4.18,5.574c0,0-3.064,1.672-3.064,5.436v3.484c0,0-9.618-5.992-26.899-11.707
	s-20.208-11.847-28.57-15.331c-8.362-3.484-20.626-6.689-21.045,0c0,0,0,2.509,1.672,4.042c1.673,1.533,8.502,8.223,12.265,10.871
	c3.763,2.647,8.362,6.41,9.756,7.805c1.394,1.394,2.787,3.483,5.436,4.459c2.647,0.977,8.222,2.788,12.263,2.788
	c4.042,0,4.042,1.672,6.97,2.647c2.926,0.977,12.403,4.785,12.403,4.785s-13.751,0.558-19.604-0.371
	c-5.854-0.93-18.118-2.974-27.595-2.045c-9.477,0.93-15.981,4.646-16.446,7.99c-0.465,3.346,1.672,5.668,14.309,11.707
	c12.635,6.039,14.68,5.947,23.32,9.105c8.641,3.16,21.835,3.811,25.365,1.766c3.531-2.044,16.446-10.871,20.162-17.003
	c0,0,0.651,2.602,1.579,4.089c0.93,1.486,0.93,3.623,0.744,5.668c-0.187,2.043-0.557,61.414-0.371,62.809
	c0.185,1.393,0.277,4.067,1.578,4.646c0,0,0.195,0.19,1.035,0.226v0.006c0.047,0,0.09,0,0.133-0.002
	c0.044,0.002,0.087,0.002,0.133,0.002v-0.006c0.841-0.035,1.035-0.226,1.035-0.226c1.301-0.578,1.394-3.253,1.579-4.646
	c0.186-1.395-0.186-60.766-0.371-62.809c-0.186-2.045-0.186-4.182,0.743-5.668c0.928-1.487,1.579-4.089,1.579-4.089
	c3.717,6.132,16.632,14.959,20.163,17.003c3.529,2.045,16.724,1.395,25.364-1.766c8.641-3.158,10.685-3.066,23.32-9.105
	C603.677,371.893,605.814,369.57,605.349,366.225z"/>
<path d="M370.538,400.582c-0.325-0.252-3.646-2.898-5.628-6.668c-2.084-3.965-1.066-10.766-1.066-10.766l-0.492,0.678
	c-1.062,1.527-2.943,18.416-3.668,27.428c-0.726,9.011-1.199,19.137-1.489,22.015c-0.29,2.878-2.151,15.953-2.548,19.91
	c-0.398,3.956-1.567,2.931-1.656,2.014s1.316-5.862,1.57-8.381s1.781-28.526,1.962-30.325s1.596-21.277,2.159-28.67
	s5.675-14.871,5.675-14.871s-0.982-0.887-3.633,0.68c-2.652,1.566-12.534,7.833-14.462,9.158
	c-1.928,1.326-11.328,7.834-12.533,8.918c-1.206,1.085-6.146,4.941-7.352,6.025c-1.205,1.085-6.748,3.495-7.833,3.615
	c-1.084,0.121-1.085-0.843,0.603-1.205c1.688-0.361,5.543-2.65,6.508-3.374c0.964-0.723,10.123-9.159,12.533-10.846
	c2.411-1.688,8.677-6.388,10.846-7.833c2.169-1.446,6.628-5.664,9.038-6.508s5.302-1.928,5.302-2.652
	c0-0.723,0.603-1.084-2.29-3.494s-5.664-5.062-7.472-7.472c-1.807-2.41-3.374-4.459-6.628-10.726
	c-3.253-6.266-5.543-11.448-5.785-14.582c-0.241-3.133-1.205-6.386-2.29-8.194c-1.085-1.808-2.049-3.856-1.206-3.856
	c0.845,0,3.857,6.387,4.218,8.435c0.361,2.049,0.603,4.7,3.857,11.208c3.253,6.508,6.386,12.774,7.712,14.101
	c1.325,1.325,8.556,8.676,9.039,8.676c0.481,0-0.724-3.013-1.447-4.579c-0.723-1.566,1.085-6.146,1.085-8.315
	c0-2.169-0.844-9.158-4.58-22.656c-3.735-13.497-6.869-22.174-7.592-24.584s-2.772-6.508-2.169-6.628
	c0.603-0.121,1.325,2.41,1.928,3.736c0.603,1.326,6.989,17.354,8.194,20.969c1.206,3.616,1.808,6.146,1.808,7.231
	s3.013,8.917,3.013,10.966s-0.482,5.183,1.688,6.388s2.772,1.205,1.326,9.521c0,0-0.723,2.17-0.121,3.494
	c0.603,1.326,0.844-0.723,0.724-1.928c-0.121-1.205,0.385-2.396,1.966-2.191c1.568,0.201,0.644,1.09,1.201,1.172
	c0.556-0.082-0.368-0.971,1.2-1.172c1.582-0.204,2.087,0.986,1.966,2.191c-0.12,1.205,0.121,3.254,0.723,1.928
	c0.603-1.324-0.121-3.494-0.121-3.494c-1.446-8.315-0.843-8.315,1.326-9.521s1.687-4.339,1.687-6.388s3.013-9.881,3.013-10.966
	s0.603-3.615,1.807-7.231c1.206-3.615,7.592-19.643,8.195-20.969c0.602-1.326,1.325-3.857,1.928-3.736
	c0.603,0.12-1.446,4.218-2.169,6.628c-0.723,2.41-3.856,11.087-7.592,24.584c-3.736,13.498-4.579,20.487-4.579,22.656
	c0,2.17,1.807,6.749,1.084,8.315s-1.928,4.579-1.446,4.579c0.482,0,7.712-7.351,9.039-8.676c1.325-1.326,4.458-7.593,7.712-14.101
	c3.253-6.508,3.495-9.159,3.856-11.208c0.362-2.048,3.375-8.435,4.218-8.435c0.844,0-0.12,2.048-1.205,3.856
	c-1.085,1.808-2.048,5.062-2.289,8.194c-0.241,3.134-2.531,8.316-5.785,14.582c-3.253,6.267-4.82,8.315-6.627,10.726
	c-1.809,2.41-4.58,5.062-7.472,7.472c-2.892,2.41-2.29,2.771-2.29,3.494c0,0.725,2.892,1.809,5.303,2.652
	c2.41,0.844,6.869,5.062,9.038,6.508c2.169,1.445,8.436,6.146,10.846,7.833c2.41,1.687,11.569,10.123,12.533,10.846
	c0.964,0.724,4.82,3.013,6.508,3.374c1.687,0.362,1.687,1.326,0.603,1.205c-1.085-0.12-6.628-2.53-7.834-3.615
	c-1.205-1.084-6.146-4.94-7.351-6.025c-1.206-1.084-10.605-7.592-12.533-8.918c-1.929-1.325-11.81-7.592-14.462-9.158
	c-2.651-1.566-3.633-0.68-3.633-0.68s5.113,7.479,5.675,14.871c0.562,7.393,1.977,26.871,2.158,28.67
	c0.181,1.799,1.708,27.807,1.962,30.325s1.659,7.464,1.57,8.381c-0.089,0.917-1.258,1.942-1.657-2.014
	c-0.398-3.957-2.258-17.032-2.548-19.91c-0.29-2.878-0.764-13.004-1.489-22.015c-0.725-9.012-2.606-25.9-3.668-27.428l-0.492-0.678
	c0,0,1.017,6.801-1.067,10.766c-1.98,3.77-5.303,6.416-5.627,6.668l-0.013,0.012L370.538,400.582z"/>
<path d="M713.262,139.419c-1.08-0.576-1.764-1.512-1.764-1.512c-0.846-1.062-1.115-1.584-1.489-2.429
	c-0.075-0.193-0.154-0.394-0.24-0.608c-1.519-3.765-4.677-10.567-5.648-10.567c-1.296,0-13.388-1.08-13.388-1.08
	s-2.159-10.58-4.463-16.195c-2.304-5.614-4.606-6.766-7.197-7.341s-8.926,0-8.926,0c2.304-0.432,6.622-4.319,8.35-5.759
	c1.728-1.439-0.288-2.015,3.599-4.318c3.888-2.304,7.198-7.054,8.062-8.781c0.864-1.728,2.591-4.318,3.312-5.039
	c0.72-0.72,2.734-0.864,4.75-2.591s1.152-3.311,0.144-2.879c-1.008,0.432-7.197,3.311-9.356,6.046s-2.447,4.75-3.167,6.19
	s-3.599,4.031-5.183,4.031c-1.583,0-2.879,0.864-3.887,0.864s-4.895-3.311-6.046-4.462c-1.151-1.152-0.432-4.463-2.303-5.903
	c-1.872-1.44-1.439-1.151-1.008-2.447c0.432-1.296,3.311-1.872,5.326-3.743c2.016-1.871,3.022-4.894,2.447-5.039
	c-0.576-0.144-3.312,2.304-3.167,3.599c0.144,1.296-3.023,2.303-4.319,2.303c-1.295,0-2.303,1.152-3.022,1.439
	c-0.873,0.349-0.874,0.293-4.138,0.391c-3.264-0.098-3.266-0.042-4.138-0.391c-0.72-0.287-1.728-1.439-3.022-1.439
	c-1.296,0-4.463-1.007-4.319-2.303c0.144-1.295-2.591-3.743-3.167-3.599c-0.576,0.145,0.432,3.167,2.447,5.039
	c2.016,1.872,4.895,2.447,5.326,3.743c0.432,1.295,0.864,1.007-1.008,2.447c-1.871,1.44-1.151,4.751-2.303,5.903
	c-1.152,1.151-5.038,4.462-6.046,4.462s-2.304-0.864-3.887-0.864c-1.584,0-4.463-2.591-5.183-4.031s-1.008-3.455-3.167-6.19
	s-8.35-5.614-9.356-6.046c-1.009-0.432-1.872,1.151,0.143,2.879c2.017,1.728,4.031,1.871,4.751,2.591s2.447,3.311,3.312,5.039
	c0.863,1.728,4.174,6.478,8.061,8.781c3.888,2.304,1.872,2.879,3.6,4.318c1.728,1.44,6.046,5.327,8.349,5.759
	c0,0-6.334-0.576-8.925,0s-4.895,1.728-7.197,7.341c-2.304,5.615-4.463,16.195-4.463,16.195s-12.092,1.08-13.388,1.08
	c-0.972,0-4.13,6.802-5.648,10.567c-0.086,0.215-0.165,0.415-0.24,0.608c-0.374,0.845-0.644,1.367-1.49,2.429
	c0,0-0.683,0.936-1.763,1.512c-1.079,0.576-6.622,2.951-6.693,3.527c-0.072,0.576,1.476,1.079,4.066-0.288
	c2.591-1.368,5.911-3.284,7.018-5.749l0.359-0.657c1.513-2.807,4.176-9.357,4.751-9.573c0.576-0.216,12.093-0.576,12.524-0.216
	c0,0,0.863,9.069,2.231,12.668c0,0-10.077,9.934-10.653,13.245c-0.575,3.311-3.454,10.94-8.205,13.532
	c-4.75,2.591-3.976,4.851,2.987,0.179c5.794-3.887,6.586-14.144,8.673-16.59c3.171-3.717,8.35-6.91,8.35-6.91
	s2.735,4.462,7.485,9.213c4.739,4.739,9.336,10.319,19.792,10.345v0.001c0.013,0,0.024,0,0.037-0.001
	c0.013,0,0.024,0.001,0.037,0.001v-0.001c10.455-0.026,15.052-5.606,19.792-10.345c4.75-4.75,7.485-9.213,7.485-9.213
	s5.179,3.192,8.349,6.91c2.088,2.447,2.879,12.704,8.674,16.59c6.964,4.672,7.737,2.412,2.986-0.179
	c-4.75-2.591-7.629-10.221-8.205-13.532c-0.575-3.311-10.652-13.245-10.652-13.245c1.367-3.599,2.231-12.668,2.231-12.668
	c0.432-0.359,11.948,0,12.524,0.216c0.575,0.216,3.238,6.766,4.75,9.573l0.36,0.657c1.106,2.465,4.426,4.381,7.018,5.749
	c2.591,1.367,4.139,0.864,4.066,0.288C719.884,142.37,714.341,139.995,713.262,139.419z"/>
</svg>
