<svg version="1.1" id="Layer_1" xmlns="http://www.w3.org/2000/svg" xmlns:xlink="http://www.w3.org/1999/xlink" viewBox="600 400 200 300" xml:space="preserve">
<a xlink:href="http://www.omfgdogs.com/">
<path d="M716.761,573.795c-1.289,0-3.438,0.108-6.019-1.288c-2.579-1.398-2.633-0.592-4.406-6.287
	c-1.772-5.696-5.212-17.088-6.502-19.184c-1.289-2.095-5.588-3.439-5.588-3.439c0.376-0.269-0.215-2.471-2.096-7.36
	c-1.88-4.891-3.976-5.428-3.976-5.428s0.322-0.592,0.913-2.526s-0.806-5.695-0.806-5.695c8.704-0.537,9.779-1.827,10.531-2.311
	c0.753-0.484,4.46-8.113,4.675-8.543s0.967-1.29,0.108-1.506c-0.86-0.214-1.397,0.216-1.666,0.698
	c-0.269,0.484-3.439,7.147-4.406,8.115c-0.968,0.968-3.978,0.859-5.48,1.182c-1.505,0.322-4.908,0.573-4.908,0.573
	c-1.218-4.012-8.455-7.236-8.455-7.236c2.222-1.146,1.147-3.009,1.147-3.009s0.787-2.006,1.72-3.01
	c0.931-1.002,1.073-2.149,0.501-3.367c-0.573-1.217,0.788-1.146,0.859-2.723c0.071-1.575-1.719-1.074-2.221,0.502
	c-0.501,1.576,0.143,2.077,0.572,2.795c0.431,0.715-0.501,2.221-0.859,2.221s-1.647,2.149-1.647,2.149l-1.935-1.076
	c0,0-0.43-4.728,0.144-9.743c0.574-5.016,8.167-24.79,8.167-24.79l8.454-21.206c0,0,6.735-15.331,7.452-18.628
	c0.716-3.296-1.004-1.146-1.004-1.146s-10.316,25.362-10.89,27.656c-0.573,2.292-10.89,28.3-12.252,33.457
	c-1.36,5.159-2.149,13.828-2.149,13.828c-1.024-0.512-3.134-0.31-3.571-0.26c-0.438-0.05-2.548-0.252-3.572,0.26
	c0,0-0.789-8.669-2.149-13.828c-1.361-5.157-11.678-31.165-12.252-33.457c-0.572-2.294-10.89-27.656-10.89-27.656
	s-1.719-2.149-1.003,1.146c0.717,3.297,7.451,18.628,7.451,18.628l8.453,21.206c0,0,7.595,19.774,8.169,24.79
	c0.572,5.016,0.144,9.743,0.144,9.743l-1.935,1.076c0,0-1.29-2.149-1.647-2.149c-0.359,0-1.291-1.506-0.861-2.221
	c0.431-0.718,1.075-1.219,0.574-2.795c-0.502-1.576-2.292-2.077-2.221-0.502c0.071,1.577,1.432,1.506,0.859,2.723
	c-0.573,1.218-0.43,2.365,0.501,3.367c0.932,1.004,1.72,3.01,1.72,3.01s-1.074,1.862,1.146,3.009c0,0-7.236,3.225-8.455,7.236
	c0,0-3.402-0.251-4.907-0.573c-1.504-0.322-4.513-0.214-5.48-1.182c-0.967-0.968-4.138-7.631-4.407-8.115
	c-0.268-0.482-0.805-0.912-1.665-0.698c-0.859,0.216-0.107,1.076,0.107,1.506s3.922,8.059,4.675,8.543
	c0.752,0.483,1.827,1.773,10.532,2.311c0,0-1.396,3.761-0.806,5.695s0.913,2.526,0.913,2.526s-2.096,0.537-3.977,5.428
	c-1.88,4.89-2.472,7.092-2.095,7.36c0,0-4.3,1.345-5.589,3.439c-1.29,2.096-4.729,13.487-6.501,19.184
	c-1.773,5.695-1.828,4.889-4.407,6.287c-2.58,1.396-4.729,1.288-6.018,1.288c-1.29,0-3.493-0.376-3.493,0.592
	s0.107,2.578,2.203,1.559c2.096-1.021,4.621-0.591,6.287-1.021c1.665-0.431,4.513-0.323,8.544-10.908
	c4.029-10.587,4.943-15.423,5.48-15.906s2.203-0.806,2.257-0.053c0.053,0.753-2.096,16.281-1.182,22.138c0,0-6.02,2.418-6.771,3.6
	c-0.751,1.183-1.666,4.729-1.343,6.181c0.322,1.45,1.559,7.361,1.935,8.489c0.375,1.129,3.708,19.936,3.762,20.903
	c0.053,0.967-2.239,13.881-2.239,14.312s-1.291,1.074,0.071,1.576c1.361,0.501,1.504-0.144,1.361-1.434
	c-0.144-1.289,2.221-11.75,2.793-13.039c0.575-1.29,0.575-2.148,0.072-4.3c-0.501-2.148-2.364-20.347-4.943-26.579
	c0,0-1.504-2.938,0.216-3.011c1.719-0.071,5.014,1.147,6.161,1.435c0,0,0.215,8.848,8.061,27.439c0,0-6.879,6.985-6.019,13.004
	c0,0,0.43,0.967,0.859-1.397c0.43-2.363,2.901-7.522,5.804-8.705c0,0,5.48,16.12,11.606,16.443l4.027,0.284v0.011l0.082-0.006
	l0.082,0.006v-0.011l4.027-0.284c6.126-0.323,11.606-16.443,11.606-16.443c2.901,1.183,5.374,6.342,5.804,8.705
	c0.429,2.364,0.858,1.397,0.858,1.397c0.86-6.019-6.018-13.004-6.018-13.004c7.846-18.592,8.061-27.439,8.061-27.439
	c1.147-0.287,4.441-1.506,6.161-1.435c1.72,0.073,0.215,3.011,0.215,3.011c-2.579,6.232-4.441,24.431-4.942,26.579
	c-0.503,2.151-0.503,3.01,0.071,4.3c0.573,1.289,2.937,11.75,2.794,13.039c-0.144,1.29,0,1.935,1.361,1.434
	c1.361-0.502,0.071-1.146,0.071-1.576s-2.292-13.345-2.239-14.312c0.054-0.968,3.385-19.774,3.762-20.903
	c0.376-1.128,1.611-7.039,1.935-8.489c0.322-1.451-0.592-4.998-1.343-6.181c-0.753-1.182-6.771-3.6-6.771-3.6
	c0.914-5.856-1.235-21.385-1.183-22.138c0.055-0.753,1.72-0.431,2.258,0.053c0.537,0.483,1.45,5.319,5.48,15.906
	c4.03,10.585,6.878,10.478,8.544,10.908c1.666,0.43,4.191,0,6.287,1.021c2.095,1.02,2.203-0.591,2.203-1.559
	S718.051,573.795,716.761,573.795z"/>
</a>
</svg>