<svg xmlns="http://www.w3.org/2000/svg" xmlns:xlink="http://www.w3.org/1999/xlink" version="1.1" viewBox="0 0 100 97.311">
<g fill="#24D494">
	<path d="M24.176,95.872c-0.118,0-0.236-0.019-0.354-0.062c-0.542-0.195-0.822-0.791-0.627-1.332   c6.968-19.326-1.485-35.387-5.548-43.104c-1.107-2.103-1.839-3.493-1.981-4.417c-2.431-15.789-0.871-16.096-0.033-16.262   c0.732-0.144,2.333-0.892,3.17-1.331c0.51-0.268,1.139-0.069,1.408,0.439c0.267,0.51,0.069,1.139-0.439,1.406   c-0.222,0.116-1.986,1.031-3.266,1.411c-0.287,1.677,0.371,8.505,1.219,14.019c0.09,0.58,0.867,2.056,1.766,3.765   c4.201,7.981,12.943,24.589,5.666,44.778C25.002,95.609,24.604,95.872,24.176,95.872z"/>
	<path d="M23.118,50.781c-0.509,0-0.954-0.374-1.029-0.895c-0.008-0.065-0.958-6.669-1.518-9.19   c-0.574-2.586-3.066-17.447-3.171-18.078l-0.085-0.515l0.36-0.377c1.772-1.854,5.827,0.528,7.214,1.831   c0.419,0.394,0.441,1.053,0.049,1.472c-0.397,0.422-1.054,0.438-1.473,0.048c-1.145-1.074-2.988-1.873-3.867-1.957   c0.549,3.262,2.522,14.94,3.009,17.125c0.576,2.598,1.505,9.073,1.546,9.348c0.081,0.569-0.313,1.096-0.883,1.179   C23.218,50.779,23.169,50.781,23.118,50.781z"/>
	<path d="M29.067,50.781c-0.389,0-0.763-0.22-0.942-0.596c-0.12-0.256-2.964-6.313-3.261-11.251   c-0.283-4.723-1.711-20.071-1.725-20.226l-0.059-0.643l0.547-0.34c0.167-0.104,1.688-0.996,3.369-0.474   c1.123,0.348,1.996,1.212,2.594,2.57c0.619,1.404,0.779,3.308,0.966,5.512c0.313,3.692,0.702,8.287,3.412,12.461   c0.311,0.482,0.175,1.127-0.307,1.44c-0.48,0.311-1.127,0.178-1.443-0.308c-2.993-4.612-3.406-9.495-3.737-13.418   c-0.171-2.018-0.319-3.763-0.797-4.848c-0.342-0.776-0.777-1.252-1.292-1.417c-0.384-0.121-0.792-0.068-1.109,0.023   c0.293,3.164,1.412,15.393,1.66,19.542c0.273,4.532,3.038,10.426,3.066,10.484c0.247,0.52,0.022,1.142-0.496,1.388   C29.368,50.749,29.218,50.781,29.067,50.781z"/>
	<path d="M42.871,97.311c-0.014,0-0.028,0-0.043-0.003c-0.576-0.021-1.021-0.508-0.999-1.082   c0.828-19.849,7.491-24.937,11.472-27.979c1.577-1.204,2.336-1.822,2.336-2.718c0-3.306,1.198-7.069,2.254-10.388   c1.064-3.345,2.269-7.131,1.225-8.147c-0.614-0.597-1.133-0.886-1.469-0.802c-1.146,0.322-2.109,4.093-2.815,6.846   c-1.04,4.064-1.938,7.572-4.169,8.271c-2.612,0.812-4.883-2.909-6.712-5.906c-0.405-0.663-0.765-1.255-1.064-1.672   c-1.534-2.148-5.369-13.513-5.369-15.37c0-2.748-0.557-14.851-1.731-16.886c-0.224-0.39-0.432-0.465-0.588-0.487   c-0.535-0.079-1.369,0.402-1.892,0.803c0.168,2.393,0.828,12.06,0.828,16.571c0,4.843,1.939,10.572,1.958,10.63   c0.187,0.544-0.104,1.136-0.647,1.322c-0.545,0.182-1.138-0.104-1.323-0.648c-0.085-0.247-2.071-6.108-2.071-11.304   c0-4.986-0.851-16.829-0.861-16.948l-0.035-0.49l0.356-0.339c0.208-0.199,2.093-1.919,3.983-1.659   c0.608,0.088,1.469,0.421,2.095,1.509c1.733,3.005,2.01,17.783,2.01,17.928c0.016,1.337,3.613,12.245,4.982,14.159   c0.319,0.448,0.708,1.083,1.146,1.797c0.891,1.459,3.245,5.316,4.311,5.005c1.124-0.353,2.078-4.079,2.773-6.802   c1.058-4.124,1.97-7.686,4.271-8.334c1.093-0.306,2.272,0.131,3.485,1.314c1.967,1.915,0.734,5.787-0.692,10.271   c-1.011,3.174-2.156,6.775-2.156,9.758c0,1.966-1.463,3.082-3.155,4.374c-3.691,2.82-9.868,7.536-10.653,26.408   C43.888,96.873,43.426,97.311,42.871,97.311z"/>
	<path d="M98.958,70.561c-0.145,0-0.289-0.03-0.43-0.092c-4.396-1.985-10.648-12.324-11.533-19.075   c-3.75-28.591-15.261-36.914-24.258-38.859c-11.15-2.411-22.906,4.085-25.604,8.423c-0.303,0.49-0.948,0.637-1.435,0.334   c-0.49-0.304-0.639-0.947-0.335-1.436c2.86-4.6,15.273-12.074,27.813-9.357c9.652,2.087,21.977,10.83,25.886,40.626   c0.842,6.429,6.872,15.886,10.324,17.444c0.523,0.235,0.757,0.854,0.521,1.379C99.732,70.333,99.354,70.561,98.958,70.561z"/>
	<path d="M59.46,94.562c-0.522,0-0.982-0.057-1.36-0.175c-2.732-0.839-5.803-4.21-8.271-6.917c-1.166-1.282-2.269-2.49-2.979-3.023   c-0.46-0.346-0.554-0.997-0.209-1.457c0.348-0.464,1.001-0.554,1.458-0.21c0.867,0.649,1.981,1.872,3.27,3.286   c2.177,2.389,5.155,5.658,7.343,6.331c1.397,0.428,5.546-0.565,9.436-3.471c3.213-2.4,8.584-7.926,8.468-17.956   c-0.006-0.576,0.453-1.046,1.029-1.054c0.004,0,0.008,0,0.012,0c0.57,0,1.036,0.46,1.042,1.029   c0.126,10.953-5.775,17.013-9.304,19.649C65.834,93.255,61.932,94.562,59.46,94.562z"/>
	<path d="M76.773,59.634c-1.358,0-1.998-0.64-2.267-1.042c-0.319-0.479-0.188-1.125,0.289-1.444   c0.473-0.317,1.123-0.191,1.444,0.289c0.017,0.026,0.227,0.142,0.723,0.107c1.636-0.12,4.596-1.748,5.894-4.496   c1.158-2.445,0.721-5.228-1.265-8.045c-1.638-2.321-3.198-3.395-4.635-3.209c-2.554,0.334-4.625,4.515-5.209,6.097   c-0.199,0.541-0.799,0.817-1.336,0.618c-0.539-0.198-0.816-0.797-0.616-1.338c0.102-0.279,2.577-6.876,6.891-7.443   c2.276-0.301,4.492,1.074,6.607,4.075c3.087,4.38,2.49,7.929,1.447,10.136c-1.573,3.322-5.113,5.5-7.628,5.683   C76.995,59.629,76.884,59.634,76.773,59.634z"/>
	<path d="M80.263,94.569c-0.252,0-0.504-0.091-0.706-0.276c-0.423-0.389-0.449-1.048-0.061-1.471   c0.415-0.91-2.004-5.581-5.196-9.967c-0.338-0.466-0.236-1.117,0.229-1.457c0.464-0.334,1.117-0.236,1.455,0.229   c2.746,3.772,7.054,10.425,5.046,12.606C80.824,94.456,80.544,94.569,80.263,94.569z"/>
	<path d="M15.119,18.139c-0.317,0-0.633-0.146-0.838-0.422c-0.039-0.052-3.908-5.264-6.655-7.542   C7.182,9.808,7.121,9.151,7.489,8.708c0.366-0.442,1.021-0.504,1.467-0.136c2.94,2.439,6.836,7.683,7.001,7.906   c0.341,0.462,0.244,1.114-0.218,1.457C15.552,18.073,15.334,18.139,15.119,18.139z"/>
	<path d="M25.903,11.615c-0.549,0-1.007-0.427-1.04-0.98c-0.091-1.542-0.61-5.89-1.91-7.47c-0.366-0.444-0.303-1.101,0.142-1.467   c0.439-0.365,1.099-0.304,1.465,0.143c1.965,2.385,2.346,8.036,2.382,8.673c0.035,0.574-0.405,1.066-0.979,1.1   C25.944,11.614,25.924,11.615,25.903,11.615z"/>
	<path d="M36.251,11.615c-0.057,0-0.112-0.004-0.169-0.013c-0.568-0.092-0.954-0.627-0.861-1.195   c0.039-0.239,0.969-5.89,2.729-9.794c0.238-0.526,0.858-0.755,1.377-0.521c0.525,0.237,0.759,0.853,0.522,1.378   c-1.648,3.656-2.563,9.215-2.573,9.271C37.195,11.252,36.751,11.615,36.251,11.615z"/>
	<path d="M10.085,26.364c-0.2,0-0.399-0.056-0.578-0.174c-0.053-0.037-5.495-3.642-8.754-4.585   c-0.553-0.161-0.871-0.739-0.712-1.291c0.161-0.552,0.743-0.873,1.29-0.711c3.568,1.034,9.098,4.697,9.332,4.852   c0.478,0.319,0.608,0.965,0.289,1.444C10.752,26.202,10.421,26.364,10.085,26.364z"/>
	<path d="M8.291,35.87c-0.106,0-0.214-0.016-0.32-0.051c-0.032-0.009-3.22-1.007-6.88-0.843c-0.563,0.018-1.064-0.418-1.088-0.993   c-0.029-0.575,0.417-1.062,0.991-1.088c4.083-0.191,7.475,0.896,7.619,0.943c0.547,0.177,0.846,0.764,0.669,1.312   C9.139,35.589,8.73,35.87,8.291,35.87z"/>
	<path d="M1.921,47.592c-0.48,0-0.91-0.331-1.017-0.817c-0.125-0.562,0.232-1.118,0.793-1.242c3.973-0.876,7.513-0.385,7.664-0.362   c0.57,0.081,0.964,0.609,0.883,1.178c-0.082,0.57-0.594,0.969-1.18,0.884c-0.033-0.006-3.322-0.459-6.919,0.334   C2.069,47.584,1.994,47.592,1.921,47.592z"/>
</g>
</svg>