<svg xmlns="http://www.w3.org/2000/svg" xmlns:xlink="http://www.w3.org/1999/xlink" version="1.1" viewBox="0 0 100 100">
<g fill="#24D494">
	<path d="M13.035,76.193c-0.44-0.031-0.784,0.313-0.801,0.739c-0.013,0.318-0.018,0.638-0.018,0.96c0,0.426,0.345,0.77,0.771,0.77   c0.423,0,0.77-0.344,0.77-0.77c0-0.301,0.005-0.602,0.017-0.9C13.79,76.566,13.458,76.211,13.035,76.193z"/>
	<path d="M22.019,58.581c-0.544,0.395-1.073,0.825-1.579,1.256c-0.319,0.284-0.344,0.766-0.071,1.085   c0.158,0.172,0.368,0.271,0.577,0.271c0.186,0,0.37-0.061,0.505-0.197c0.481-0.406,0.975-0.8,1.479-1.17   c0.344-0.259,0.419-0.738,0.171-1.084C22.844,58.408,22.362,58.335,22.019,58.581z"/>
	<path d="M16.068,66.315c-0.37-0.195-0.837-0.06-1.034,0.321c-0.322,0.591-0.616,1.194-0.876,1.811   c-0.173,0.395,0.013,0.85,0.395,1.011c0.099,0.049,0.21,0.061,0.309,0.061c0.296,0,0.579-0.172,0.702-0.455   c0.245-0.579,0.529-1.157,0.825-1.7C16.586,66.982,16.449,66.513,16.068,66.315z"/>
	<path d="M13.985,71.084c-0.406-0.11-0.825,0.123-0.936,0.541c-0.186,0.641-0.332,1.307-0.443,1.959   c-0.086,0.418,0.197,0.824,0.616,0.899c0.048,0.012,0.087,0.012,0.135,0.012c0.37,0,0.69-0.259,0.765-0.628   c0.111-0.628,0.246-1.243,0.407-1.848C14.64,71.613,14.404,71.194,13.985,71.084z"/>
	<path d="M18.075,62.214c-0.442,0.505-0.861,1.036-1.256,1.578c-0.26,0.344-0.186,0.825,0.161,1.07   c0.135,0.099,0.294,0.148,0.455,0.148c0.233,0,0.469-0.11,0.628-0.308c0.37-0.504,0.765-1.01,1.171-1.479   c0.282-0.32,0.246-0.813-0.074-1.083C18.84,61.858,18.347,61.894,18.075,62.214z"/>
	<path d="M26.673,55.921c-0.615,0.259-1.22,0.555-1.812,0.874c-0.368,0.197-0.517,0.665-0.319,1.036   c0.148,0.27,0.406,0.405,0.69,0.405c0.122,0,0.245-0.025,0.355-0.086c0.556-0.296,1.121-0.567,1.701-0.812   c0.395-0.174,0.567-0.628,0.406-1.011C27.522,55.933,27.067,55.747,26.673,55.921z"/>
	<path d="M36.13,53.979c-0.046,0-0.089,0.002-0.135,0.002c-0.221-0.044-0.442-0.09-0.666-0.127   c-0.411-0.072-0.815,0.208-0.888,0.628c-0.012,0.071-0.003,0.142,0.005,0.211c-0.003,0.036-0.017,0.067-0.017,0.106   c0.017,0.413,0.358,0.738,0.77,0.738c0.01,0,0.021,0,0.031-0.001c0.212-0.009,0.424-0.011,0.635-0.014   c0.029,0.008,0.058,0.013,0.087,0.017c0.053,0.013,0.108,0.018,0.161,0.018c0.301,0,0.567-0.184,0.69-0.457   c0.021-0.039,0.036-0.077,0.048-0.118c0.003-0.012,0.013-0.021,0.015-0.034c0.003-0.012-0.002-0.022,0-0.034   c0.012-0.055,0.034-0.107,0.034-0.165C36.9,54.323,36.554,53.979,36.13,53.979z"/>
	<path d="M9.054,70.942c-0.414-0.106-0.833,0.143-0.936,0.556c-0.08,0.309-0.152,0.62-0.22,0.936   c-0.089,0.415,0.176,0.824,0.592,0.913c0.054,0.011,0.108,0.017,0.161,0.017c0.356,0,0.674-0.248,0.754-0.609   c0.062-0.294,0.13-0.586,0.204-0.876C9.715,71.467,9.465,71.047,9.054,70.942z"/>
	<path d="M11.055,66.145c-0.382-0.197-0.837-0.05-1.034,0.332c-0.308,0.592-0.592,1.208-0.852,1.824   c-0.158,0.394,0.026,0.849,0.421,1.009c0.099,0.037,0.195,0.062,0.294,0.062c0.308,0,0.592-0.186,0.714-0.479   c0.236-0.579,0.506-1.159,0.789-1.712C11.584,66.797,11.438,66.341,11.055,66.145z"/>
	<path d="M31.971,53.52c-0.679-0.025-1.343-0.013-2.009,0.024c-0.431,0.023-0.751,0.381-0.727,0.812   c0.012,0.246,0.146,0.467,0.332,0.604c-0.233,0.184-0.344,0.492-0.258,0.8c0.087,0.345,0.407,0.566,0.739,0.566   c0.074,0,0.135-0.012,0.209-0.024c0.592-0.173,1.22-0.308,1.836-0.418c0.418-0.075,0.69-0.481,0.615-0.9   c-0.012-0.099-0.051-0.197-0.11-0.283c0.072-0.111,0.123-0.246,0.123-0.395C32.733,53.876,32.401,53.531,31.971,53.52z"/>
	<path d="M15.848,60.946c0.183,0,0.368-0.062,0.517-0.197c0.467-0.419,0.96-0.825,1.453-1.194c0.345-0.259,0.419-0.74,0.159-1.084   c-0.258-0.332-0.738-0.406-1.083-0.148c-0.529,0.407-1.061,0.825-1.552,1.281c-0.322,0.284-0.346,0.763-0.062,1.084   C15.427,60.859,15.636,60.946,15.848,60.946z"/>
	<path d="M22.141,56.992c0.395-0.172,0.565-0.629,0.395-1.009c-0.173-0.395-0.628-0.568-1.022-0.395   c-0.604,0.282-1.207,0.578-1.799,0.911c-0.368,0.196-0.506,0.664-0.296,1.035c0.137,0.257,0.395,0.406,0.666,0.406   c0.135,0,0.257-0.038,0.368-0.099C21.008,57.535,21.573,57.251,22.141,56.992z"/>
	<path d="M13.025,64.493c0.358-0.504,0.738-1.009,1.146-1.49c0.271-0.332,0.233-0.813-0.087-1.084   c-0.332-0.282-0.813-0.234-1.083,0.086c-0.444,0.517-0.849,1.061-1.243,1.602c-0.236,0.345-0.161,0.825,0.183,1.071   c0.137,0.099,0.296,0.137,0.445,0.137C12.631,64.814,12.864,64.703,13.025,64.493z"/>
	<path d="M25.098,55.921c0.604-0.174,1.22-0.332,1.835-0.443c0.419-0.086,0.688-0.493,0.602-0.911   c-0.084-0.419-0.49-0.69-0.909-0.604c-0.654,0.123-1.307,0.284-1.961,0.481c-0.406,0.11-0.64,0.541-0.517,0.948   c0.099,0.332,0.406,0.553,0.74,0.553C24.948,55.944,25.022,55.933,25.098,55.921z"/>
	<path d="M45.481,17.614c4.854,0,8.808-3.955,8.808-8.808c0-4.864-3.953-8.808-8.808-8.808c-4.864,0-8.808,3.943-8.808,8.808   C36.674,13.659,40.617,17.614,45.481,17.614z M45.481,3.078c3.153,0,5.728,2.562,5.728,5.729c0,3.154-2.574,5.728-5.728,5.728   c-3.166,0-5.729-2.573-5.729-5.728C39.753,5.641,42.315,3.078,45.481,3.078z"/>
	<path d="M62.109,93.611l-0.12-0.306l-4.246-28.722c1.792-2.485,2.567-5.62,2.163-8.76c0-0.001,0-0.002,0-0.002V55.81   c0.072-0.233,0.11-0.468,0.11-0.727l-0.122-29.119c0-4.753-3.869-8.634-8.635-8.634c-4.756,0-8.622,3.881-8.622,8.634v20.375   l-3.067,3.275l-0.469,0.505c-0.628,0.653-0.96,1.502-0.937,2.402c0.024,0.899,0.395,1.725,1.047,2.353   c0.628,0.591,1.453,0.924,2.316,0.924c0.725,0,1.438-0.245,2.031-0.676v0.01c0,0.017,0.009,0.033,0.009,0.05   c0,0.02-0.007,0.034-0.007,0.052l2.586,38.577c0.056,0.814,0.731,1.438,1.535,1.438c0.033,0,0.069-0.001,0.104-0.003   c0.849-0.057,1.491-0.792,1.434-1.639l-2.581-38.525v-0.332v-0.433h10.299v0.003v0.616c-0.074,0.172-0.146,0.762-0.125,0.908   c0.354,2.144-0.02,4.277-1.008,6.067c-0.005,0.001-0.01-0.003-0.013,0c-1.7,1.362,3.179,32.022,3.179,32.022   c0.017,0.118,0.048,0.233,0.091,0.344l0.236,0.578c0.312,0.642,0.406,1.371,0.281,2.064h-3.084h-0.672   c0.111-1.15-0.079-2.311-0.57-3.309l-0.103-0.265l-2.354-26.019c-0.077-0.847-0.822-1.47-1.672-1.395   c-0.847,0.076-1.473,0.825-1.396,1.672l2.372,26.241c0.015,0.148,0.049,0.294,0.104,0.431l0.236,0.579   c0.312,0.641,0.406,1.37,0.281,2.063h-3.084h-1.415H48.13h-6.76c-0.217,0-0.39-0.174-0.39-0.387s0.173-0.388,0.39-0.388h2.285   c0.85,0,1.54-0.689,1.54-1.539c0-0.851-0.69-1.54-1.54-1.54H41.37c-1.913,0-3.47,1.556-3.47,3.467c0,1.845,1.453,3.345,3.274,3.447   c0.034,0.001,0.062,0.02,0.099,0.02h0.097h6.76h0.094h1.415h4.186h2.671h4.186c0.587,0,1.124-0.336,1.384-0.865   C62.926,97.373,62.926,95.268,62.109,93.611z M45.717,25.964c0-3.054,2.487-5.555,5.543-5.555c3.065,0,5.555,2.501,5.555,5.567   l0.111,25.26h-9.332l6.77-6.278c0.763-0.8,1.182-1.848,1.182-2.956v-8.276v-6.394c0-2.365-1.92-4.286-4.285-4.286   c-2.353,0-4.274,1.921-4.274,4.286v6.381c0,0.013,0,0.013,0,0.024c0,0.062,0,0.123,0.012,0.186l0.888,6.811l-2.168,2.316V25.964z    M41.331,52.644c-0.074-0.061-0.086-0.146-0.086-0.197c0-0.048,0.012-0.135,0.086-0.209l2.303-2.464l2.083-2.229l4.913-5.248   c0.308-0.332,0.457-0.787,0.406-1.244l-0.763-5.788h2.191v6.737c0,0.309-0.122,0.603-0.27,0.764l-6.185,5.74l-1.639,1.515   l-1.366,1.269l-1.268,1.343C41.577,52.792,41.454,52.755,41.331,52.644z M52.465,32.186h-2.4v-4.854   c0-0.665,0.541-1.206,1.195-1.206c0.664,0,1.205,0.541,1.205,1.206V32.186z"/>
</g>
</svg>