<svg version="1.1" xmlns="http://www.w3.org/2000/svg" xmlns:xlink="http://www.w3.org/1999/xlink" viewBox="0 10 156 82">
		<g>
			<rect y="51.051" fill-rule="evenodd" clip-rule="evenodd" fill="#7670B3" width="156" height="41.6"/>
			<g>
				<path fill-rule="evenodd" clip-rule="evenodd" fill="#FFFFFF" d="M10.367,51.051C4.64,51.068,0,55.719,0,61.45
					c5.743,0,10.399,4.657,10.399,10.4c0-5.743,4.658-10.4,10.4-10.4c0-5.731-4.639-10.382-10.367-10.399H10.367L10.367,51.051z"/>
				<path fill-rule="evenodd" clip-rule="evenodd" fill="#FFFFFF" d="M31.167,51.051C25.44,51.068,20.8,55.719,20.8,61.45
					c5.743,0,10.399,4.657,10.399,10.4c0-5.743,4.658-10.4,10.4-10.4c0-5.731-4.639-10.382-10.367-10.399H31.167L31.167,51.051z"/>
				<path fill-rule="evenodd" clip-rule="evenodd" fill="#FFFFFF" d="M51.967,51.051C46.239,51.068,41.6,55.719,41.6,61.45
					c5.743,0,10.4,4.657,10.4,10.4c0-5.743,4.657-10.4,10.4-10.4c0-5.731-4.639-10.382-10.366-10.399H51.967L51.967,51.051z"/>
				<path fill-rule="evenodd" clip-rule="evenodd" fill="#FFFFFF" d="M72.767,51.051C67.039,51.068,62.4,55.719,62.4,61.45
					c5.743,0,10.4,4.657,10.4,10.4c0-5.743,4.657-10.4,10.399-10.4c0-5.731-4.639-10.382-10.366-10.399H72.767L72.767,51.051z"/>
				<path fill-rule="evenodd" clip-rule="evenodd" fill="#FFFFFF" d="M93.566,51.051C87.839,51.068,83.2,55.719,83.2,61.45
					c5.742,0,10.399,4.657,10.399,10.4c0-5.743,4.657-10.4,10.4-10.4c0-5.731-4.64-10.382-10.367-10.399H93.566L93.566,51.051z"/>
				<path fill-rule="evenodd" clip-rule="evenodd" fill="#FFFFFF" d="M114.366,51.051C108.639,51.068,104,55.719,104,61.45
					c5.742,0,10.399,4.657,10.399,10.4c0-5.743,4.657-10.4,10.4-10.4c0-5.731-4.64-10.382-10.366-10.399H114.366L114.366,51.051z"/>
				<path fill-rule="evenodd" clip-rule="evenodd" fill="#FFFFFF" d="M135.166,51.051c-5.728,0.018-10.366,4.668-10.366,10.399
					c5.742,0,10.399,4.657,10.399,10.4c0-5.743,4.657-10.4,10.4-10.4c0-5.731-4.64-10.382-10.366-10.399H135.166L135.166,51.051z"/>
				<path fill-rule="evenodd" clip-rule="evenodd" fill="#FFFFFF" d="M155.966,51.051c-5.726,0.018-10.366,4.668-10.366,10.399
					c5.743,0,10.399,4.657,10.399,10.4v-20.8H155.966L155.966,51.051z"/>
			</g>
			<g>
				<path fill-rule="evenodd" clip-rule="evenodd" fill="#FFFFFF" d="M10.4,71.85C4.657,71.85,0,76.507,0,82.25
					c5.743,0,10.4,4.657,10.4,10.399c0-5.742,4.657-10.399,10.4-10.399C20.8,76.507,16.143,71.85,10.4,71.85L10.4,71.85z"/>
				<path fill-rule="evenodd" clip-rule="evenodd" fill="#FFFFFF" d="M31.2,71.85c-5.743,0-10.4,4.657-10.4,10.4
					c5.743,0,10.4,4.657,10.4,10.399c0-5.742,4.657-10.399,10.4-10.399C41.6,76.507,36.943,71.85,31.2,71.85L31.2,71.85z"/>
				<path fill-rule="evenodd" clip-rule="evenodd" fill="#FFFFFF" d="M52,71.85c-5.743,0-10.399,4.657-10.4,10.4
					c5.743,0,10.4,4.657,10.4,10.399c0-5.742,4.657-10.399,10.4-10.399C62.4,76.507,57.743,71.85,52,71.85L52,71.85z"/>
				<path fill-rule="evenodd" clip-rule="evenodd" fill="#FFFFFF" d="M72.8,71.85c-5.743,0-10.399,4.657-10.4,10.4
					c5.743,0,10.4,4.657,10.4,10.399c0-5.742,4.657-10.399,10.4-10.399C83.199,76.507,78.543,71.85,72.8,71.85L72.8,71.85z"/>
				<path fill-rule="evenodd" clip-rule="evenodd" fill="#FFFFFF" d="M93.6,71.85c-5.743,0-10.399,4.657-10.4,10.4
					c5.743,0,10.4,4.657,10.4,10.399c0-5.742,4.657-10.399,10.4-10.399C103.999,76.507,99.343,71.85,93.6,71.85L93.6,71.85z"/>
				<path fill-rule="evenodd" clip-rule="evenodd" fill="#FFFFFF" d="M114.399,71.85c-5.743,0-10.399,4.657-10.399,10.4
					c5.742,0,10.399,4.657,10.399,10.399c0-5.742,4.657-10.399,10.4-10.399C124.8,76.507,120.143,71.85,114.399,71.85L114.399,71.85
					z"/>
				<path fill-rule="evenodd" clip-rule="evenodd" fill="#FFFFFF" d="M135.199,71.85c-5.742,0-10.399,4.657-10.399,10.4
					c5.743,0,10.399,4.657,10.399,10.399c0-5.742,4.657-10.399,10.4-10.399C145.6,76.507,140.942,71.85,135.199,71.85L135.199,71.85
					z"/>
				<path fill-rule="evenodd" clip-rule="evenodd" fill="#FFFFFF" d="M156,71.85c-5.743,0-10.4,4.657-10.4,10.4
					c5.743,0,10.4,4.657,10.4,10.399V71.85L156,71.85z"/>
			</g>
		</g>
		<g>
			<rect y="9.451" fill-rule="evenodd" clip-rule="evenodd" fill="#7670B3" width="156" height="41.6"/>
			<g>
				<path fill-rule="evenodd" clip-rule="evenodd" fill="#FFFFFF" d="M10.367,9.451C4.64,9.469,0,14.119,0,19.851
					c5.743,0,10.399,4.657,10.399,10.4c0-5.743,4.658-10.4,10.4-10.4c0-5.732-4.639-10.382-10.367-10.399H10.367L10.367,9.451z"/>
				<path fill-rule="evenodd" clip-rule="evenodd" fill="#FFFFFF" d="M31.167,9.451C25.44,9.469,20.8,14.119,20.8,19.851
					c5.743,0,10.399,4.657,10.399,10.4c0-5.743,4.658-10.4,10.4-10.4c0-5.732-4.639-10.382-10.367-10.399H31.167L31.167,9.451z"/>
				<path fill-rule="evenodd" clip-rule="evenodd" fill="#FFFFFF" d="M51.967,9.451C46.239,9.469,41.6,14.119,41.6,19.851
					c5.743,0,10.4,4.657,10.4,10.4c0-5.743,4.657-10.4,10.4-10.4c0-5.732-4.639-10.382-10.366-10.399H51.967L51.967,9.451z"/>
				<path fill-rule="evenodd" clip-rule="evenodd" fill="#FFFFFF" d="M72.767,9.451C67.039,9.469,62.4,14.119,62.4,19.851
					c5.743,0,10.4,4.657,10.4,10.4c0-5.743,4.657-10.4,10.399-10.4c0-5.732-4.639-10.382-10.366-10.399H72.767L72.767,9.451z"/>
				<path fill-rule="evenodd" clip-rule="evenodd" fill="#FFFFFF" d="M93.566,9.451C87.839,9.469,83.2,14.119,83.2,19.851
					c5.742,0,10.399,4.657,10.399,10.4c0-5.743,4.657-10.4,10.4-10.4c0-5.732-4.64-10.382-10.367-10.399H93.566L93.566,9.451z"/>
				<path fill-rule="evenodd" clip-rule="evenodd" fill="#FFFFFF" d="M114.366,9.451C108.639,9.469,104,14.119,104,19.851
					c5.742,0,10.399,4.657,10.399,10.4c0-5.743,4.657-10.4,10.4-10.4c0-5.732-4.64-10.382-10.366-10.399H114.366L114.366,9.451z"/>
				<path fill-rule="evenodd" clip-rule="evenodd" fill="#FFFFFF" d="M135.166,9.451c-5.728,0.018-10.366,4.668-10.366,10.399
					c5.742,0,10.399,4.657,10.399,10.4c0-5.743,4.657-10.4,10.4-10.4c0-5.732-4.64-10.382-10.366-10.399H135.166L135.166,9.451z"/>
				<path fill-rule="evenodd" clip-rule="evenodd" fill="#FFFFFF" d="M155.966,9.451c-5.726,0.018-10.366,4.668-10.366,10.399
					c5.743,0,10.399,4.657,10.399,10.4v-20.8H155.966L155.966,9.451z"/>
			</g>
			<g>
				<path fill-rule="evenodd" clip-rule="evenodd" fill="#FFFFFF" d="M10.4,30.25C4.657,30.25,0,34.907,0,40.65
					c5.743,0,10.4,4.657,10.4,10.399c0-5.742,4.657-10.399,10.4-10.399C20.8,34.907,16.143,30.25,10.4,30.25L10.4,30.25z"/>
				<path fill-rule="evenodd" clip-rule="evenodd" fill="#FFFFFF" d="M31.2,30.25c-5.743,0-10.4,4.657-10.4,10.4
					c5.743,0,10.4,4.657,10.4,10.399c0-5.742,4.657-10.399,10.4-10.399C41.6,34.907,36.943,30.25,31.2,30.25L31.2,30.25z"/>
				<path fill-rule="evenodd" clip-rule="evenodd" fill="#FFFFFF" d="M52,30.25c-5.743,0-10.399,4.657-10.4,10.4
					c5.743,0,10.4,4.657,10.4,10.399c0-5.742,4.657-10.399,10.4-10.399C62.4,34.907,57.743,30.25,52,30.25L52,30.25z"/>
				<path fill-rule="evenodd" clip-rule="evenodd" fill="#FFFFFF" d="M72.8,30.25c-5.743,0-10.399,4.657-10.4,10.4
					c5.743,0,10.4,4.657,10.4,10.399c0-5.742,4.657-10.399,10.4-10.399C83.199,34.907,78.543,30.25,72.8,30.25L72.8,30.25z"/>
				<path fill-rule="evenodd" clip-rule="evenodd" fill="#FFFFFF" d="M93.6,30.25c-5.743,0-10.399,4.657-10.4,10.4
					c5.743,0,10.4,4.657,10.4,10.399c0-5.742,4.657-10.399,10.4-10.399C103.999,34.907,99.343,30.25,93.6,30.25L93.6,30.25z"/>
				<path fill-rule="evenodd" clip-rule="evenodd" fill="#FFFFFF" d="M114.399,30.25c-5.743,0-10.399,4.657-10.399,10.4
					c5.742,0,10.399,4.657,10.399,10.399c0-5.742,4.657-10.399,10.4-10.399C124.8,34.907,120.143,30.25,114.399,30.25L114.399,30.25
					z"/>
				<path fill-rule="evenodd" clip-rule="evenodd" fill="#FFFFFF" d="M135.199,30.25c-5.742,0-10.399,4.657-10.399,10.4
					c5.743,0,10.399,4.657,10.399,10.399c0-5.742,4.657-10.399,10.4-10.399C145.6,34.907,140.942,30.25,135.199,30.25L135.199,30.25
					z"/>
				<path fill-rule="evenodd" clip-rule="evenodd" fill="#FFFFFF" d="M156,30.25c-5.743,0-10.4,4.657-10.4,10.4
					c5.743,0,10.4,4.657,10.4,10.399V30.25L156,30.25z"/>
			</g>
		</g>
</svg>
